<?xml version="1.0" encoding="UTF-8"?><!DOCTYPE svg PUBLIC "-//W3C//DTD SVG 1.1//EN" "http://www.w3.org/Graphics/SVG/1.1/DTD/svg11.dtd"><svg xmlns="http://www.w3.org/2000/svg" xmlns:xlink="http://www.w3.org/1999/xlink"><defs/><symbol id="ColoredIcons/ic/clr-wifi-3" viewBox="0 0 24 28">
<g id="ic/clr-wifi-3">
<path id="p" d="M12.0048 21.5918C12.1278 21.5918 12.2508 21.5566 12.3738 21.4863C12.4968 21.4219 12.6491 21.2989 12.8307 21.1173L15.0184 19.0175C15.1121 18.9238 15.1648 18.8096 15.1765 18.6749C15.1941 18.5402 15.1589 18.4201 15.0711 18.3147C14.7314 17.893 14.2891 17.5445 13.7444 17.2692C13.1997 16.9939 12.6198 16.8563 12.0048 16.8563C11.3723 16.8563 10.7748 17.0027 10.2126 17.2955C9.65612 17.5825 9.20805 17.9545 8.86834 18.4113C8.80976 18.505 8.79219 18.6075 8.81562 18.7188C8.83905 18.8301 8.89762 18.9297 8.99134 19.0175L11.1702 21.1173C11.3576 21.2931 11.5128 21.4161 11.6358 21.4863C11.7588 21.5566 11.8818 21.5918 12.0048 21.5918ZM6.6719 16.5927C6.7949 16.7098 6.93254 16.7655 7.08483 16.7596C7.23711 16.7479 7.37183 16.6805 7.48897 16.5575C8.0454 15.9718 8.72191 15.5003 9.51848 15.143C10.3209 14.7857 11.1468 14.6071 11.9961 14.6071C12.8571 14.6071 13.6917 14.7916 14.5 15.1606C15.3083 15.5237 15.9936 16.0011 16.5559 16.5927C16.6613 16.7098 16.7843 16.7684 16.9249 16.7684C17.0713 16.7625 17.206 16.704 17.329 16.5927L18.7435 15.2309C18.8372 15.1372 18.887 15.0317 18.8929 14.9146C18.9046 14.7916 18.8665 14.6774 18.7787 14.572C18.3042 14.0038 17.7127 13.506 17.0039 13.0784C16.3011 12.645 15.5221 12.3082 14.6669 12.068C13.8118 11.822 12.9215 11.699 11.9961 11.699C11.0765 11.699 10.1891 11.822 9.33398 12.068C8.47883 12.3082 7.6969 12.645 6.98819 13.0784C6.28533 13.506 5.69375 14.0038 5.21346 14.572C5.12561 14.6774 5.08461 14.7916 5.09046 14.9146C5.10218 15.0317 5.15782 15.1372 5.25739 15.2309L6.6719 16.5927ZM2.95553 12.9554C3.06681 13.0725 3.1986 13.1311 3.35089 13.1311C3.50903 13.1252 3.64374 13.0637 3.75503 12.9466C4.85032 11.7869 6.0979 10.9083 7.49776 10.3109C8.89762 9.70758 10.3971 9.40594 11.9961 9.40594C13.6126 9.40594 15.1209 9.70758 16.5207 10.3109C17.9264 10.9142 19.174 11.7957 20.2635 12.9554C20.3747 13.0667 20.5036 13.1223 20.65 13.1223C20.8023 13.1165 20.9341 13.055 21.0454 12.9378L22.3017 11.6727C22.4013 11.5672 22.454 11.453 22.4599 11.33C22.4657 11.2012 22.4247 11.0869 22.3369 10.9874C21.6106 10.0854 20.6998 9.29173 19.6045 8.60644C18.5151 7.91529 17.3173 7.37643 16.0111 6.98986C14.7109 6.60329 13.3725 6.41 11.9961 6.41C10.6255 6.41 9.28712 6.60329 7.98097 6.98986C6.67483 7.37057 5.47411 7.90651 4.37882 8.59765C3.28939 9.2888 2.38152 10.0854 1.65524 10.9874C1.57324 11.0869 1.53516 11.2012 1.54102 11.33C1.54688 11.453 1.59666 11.5672 1.69038 11.6727L2.95553 12.9554Z" fill="#007AFF"/>
</g>
</symbol><symbol id="ColoredIcons/ic/clr-wifi-2" viewBox="0 0 24 28">
<g id="ic/clr-wifi-2">
<g id="p">
<path id="p_2" d="M12.0048 21.5918C12.1278 21.5918 12.2508 21.5566 12.3738 21.4863C12.4968 21.4219 12.6491 21.2989 12.8307 21.1173L15.0184 19.0176C15.1121 18.9238 15.1648 18.8096 15.1765 18.6749C15.1941 18.5402 15.1589 18.4201 15.0711 18.3147C14.7314 17.893 14.2891 17.5445 13.7444 17.2692C13.1997 16.9939 12.6198 16.8563 12.0048 16.8563C11.3723 16.8563 10.7748 17.0027 10.2126 17.2955C9.65612 17.5825 9.20805 17.9545 8.86834 18.4113C8.80976 18.505 8.79219 18.6076 8.81562 18.7188C8.83905 18.8301 8.89762 18.9297 8.99134 19.0176L11.1702 21.1173C11.3576 21.2931 11.5128 21.4161 11.6358 21.4863C11.7588 21.5566 11.8818 21.5918 12.0048 21.5918ZM6.6719 16.5927C6.7949 16.7098 6.93254 16.7655 7.08483 16.7596C7.23711 16.7479 7.37183 16.6805 7.48897 16.5575C8.0454 15.9718 8.72191 15.5003 9.51848 15.143C10.3209 14.7857 11.1468 14.6071 11.9961 14.6071C12.8571 14.6071 13.6917 14.7916 14.5 15.1606C15.3083 15.5238 15.9936 16.0011 16.5559 16.5927C16.6613 16.7098 16.7843 16.7684 16.9249 16.7684C17.0713 16.7625 17.206 16.704 17.329 16.5927L18.7435 15.2309C18.8372 15.1372 18.887 15.0318 18.8929 14.9146C18.9046 14.7916 18.8665 14.6774 18.7787 14.572C18.3042 14.0038 17.7127 13.506 17.0039 13.0784C16.3011 12.645 15.5221 12.3082 14.6669 12.068C13.8118 11.822 12.9215 11.699 11.9961 11.699C11.0765 11.699 10.1891 11.822 9.33398 12.068C8.47883 12.3082 7.6969 12.645 6.98819 13.0784C6.28533 13.506 5.69375 14.0038 5.21346 14.572C5.12561 14.6774 5.08461 14.7916 5.09046 14.9146C5.10218 15.0318 5.15782 15.1372 5.25739 15.2309L6.6719 16.5927ZM2.95553 12.9554C3.06681 13.0725 3.1986 13.1311 3.35089 13.1311C3.50903 13.1252 3.64374 13.0637 3.75503 12.9466C4.85032 11.7869 6.0979 10.9083 7.49776 10.3109C8.89762 9.70759 10.3971 9.40594 11.9961 9.40594C13.6126 9.40594 15.1209 9.70759 16.5207 10.3109C17.9264 10.9142 19.174 11.7957 20.2635 12.9554C20.3747 13.0667 20.5036 13.1223 20.65 13.1223C20.8023 13.1165 20.9341 13.055 21.0454 12.9378L22.3017 11.6727C22.4013 11.5672 22.454 11.453 22.4599 11.33C22.4657 11.2012 22.4247 11.087 22.3369 10.9874C21.6106 10.0854 20.6998 9.29173 19.6045 8.60644C18.5151 7.9153 17.3173 7.37644 16.0111 6.98986C14.7109 6.60329 13.3725 6.41 11.9961 6.41C10.6255 6.41 9.28712 6.60329 7.98097 6.98986C6.67483 7.37058 5.47411 7.90651 4.37882 8.59765C3.28939 9.2888 2.38152 10.0854 1.65524 10.9874C1.57324 11.087 1.53516 11.2012 1.54102 11.33C1.54688 11.453 1.59666 11.5672 1.69038 11.6727L2.95553 12.9554Z" fill="#D1D1D6"/>
<path id="p_3" d="M12.0048 21.5918C12.1278 21.5918 12.2508 21.5566 12.3738 21.4863C12.4968 21.4219 12.6491 21.2989 12.8307 21.1173L15.0184 19.0176C15.1121 18.9238 15.1648 18.8096 15.1765 18.6749C15.1941 18.5402 15.1589 18.4201 15.0711 18.3147C14.7314 17.893 14.2891 17.5445 13.7444 17.2692C13.1997 16.9939 12.6198 16.8563 12.0048 16.8563C11.3723 16.8563 10.7748 17.0027 10.2126 17.2955C9.65612 17.5825 9.20805 17.9545 8.86833 18.4113C8.80976 18.5051 8.79219 18.6076 8.81562 18.7188C8.83905 18.8301 8.89762 18.9297 8.99133 19.0176L11.1702 21.1173C11.3576 21.2931 11.5128 21.4161 11.6358 21.4863C11.7588 21.5566 11.8818 21.5918 12.0048 21.5918ZM6.6719 16.5927C6.7949 16.7098 6.93254 16.7655 7.08483 16.7596C7.23711 16.7479 7.37183 16.6805 7.48897 16.5575C8.0454 15.9718 8.7219 15.5003 9.51848 15.143C10.3209 14.7858 11.1468 14.6071 11.9961 14.6071C12.8571 14.6071 13.6917 14.7916 14.5 15.1606C15.3083 15.5238 15.9936 16.0011 16.5559 16.5927C16.6613 16.7098 16.7843 16.7684 16.9249 16.7684C17.0713 16.7625 17.206 16.704 17.329 16.5927L18.7435 15.2309C18.8372 15.1372 18.887 15.0318 18.8929 14.9146C18.9046 14.7916 18.8665 14.6774 18.7787 14.572C18.3042 14.0038 17.7127 13.506 17.0039 13.0784C16.3011 12.645 15.5221 12.3082 14.6669 12.068C13.8118 11.822 12.9215 11.699 11.9961 11.699C11.0765 11.699 10.1891 11.822 9.33398 12.068C8.47883 12.3082 7.6969 12.645 6.98818 13.0784C6.28532 13.506 5.69375 14.0038 5.21346 14.572C5.1256 14.6774 5.0846 14.7916 5.09046 14.9146C5.10218 15.0318 5.15782 15.1372 5.25739 15.2309L6.6719 16.5927Z" fill="#007AFF"/>
</g>
</g>
</symbol><symbol id="ColoredIcons/ic/clr-wifi-1" viewBox="0 0 24 28">
<g id="ic/clr-wifi-1">
<g id="p">
<path id="p_2" d="M12.0048 21.5918C12.1278 21.5918 12.2508 21.5566 12.3738 21.4863C12.4968 21.4219 12.6491 21.2989 12.8307 21.1173L15.0184 19.0176C15.1121 18.9238 15.1648 18.8096 15.1765 18.6749C15.1941 18.5402 15.1589 18.4201 15.0711 18.3147C14.7314 17.893 14.2891 17.5445 13.7444 17.2692C13.1997 16.9939 12.6198 16.8563 12.0048 16.8563C11.3723 16.8563 10.7748 17.0027 10.2126 17.2955C9.65612 17.5825 9.20805 17.9545 8.86834 18.4113C8.80976 18.505 8.79219 18.6076 8.81562 18.7188C8.83905 18.8301 8.89762 18.9297 8.99134 19.0176L11.1702 21.1173C11.3576 21.2931 11.5128 21.4161 11.6358 21.4863C11.7588 21.5566 11.8818 21.5918 12.0048 21.5918ZM6.6719 16.5927C6.7949 16.7098 6.93254 16.7655 7.08483 16.7596C7.23711 16.7479 7.37183 16.6805 7.48897 16.5575C8.0454 15.9718 8.72191 15.5003 9.51848 15.143C10.3209 14.7857 11.1468 14.6071 11.9961 14.6071C12.8571 14.6071 13.6917 14.7916 14.5 15.1606C15.3083 15.5238 15.9936 16.0011 16.5559 16.5927C16.6613 16.7098 16.7843 16.7684 16.9249 16.7684C17.0713 16.7625 17.206 16.704 17.329 16.5927L18.7435 15.2309C18.8372 15.1372 18.887 15.0318 18.8929 14.9146C18.9046 14.7916 18.8665 14.6774 18.7787 14.572C18.3042 14.0038 17.7127 13.506 17.0039 13.0784C16.3011 12.645 15.5221 12.3082 14.6669 12.068C13.8118 11.822 12.9215 11.699 11.9961 11.699C11.0765 11.699 10.1891 11.822 9.33398 12.068C8.47883 12.3082 7.6969 12.645 6.98819 13.0784C6.28533 13.506 5.69375 14.0038 5.21346 14.572C5.12561 14.6774 5.08461 14.7916 5.09046 14.9146C5.10218 15.0318 5.15782 15.1372 5.25739 15.2309L6.6719 16.5927ZM2.95553 12.9554C3.06681 13.0725 3.1986 13.1311 3.35089 13.1311C3.50903 13.1252 3.64374 13.0637 3.75503 12.9466C4.85032 11.7869 6.0979 10.9083 7.49776 10.3109C8.89762 9.70759 10.3971 9.40594 11.9961 9.40594C13.6126 9.40594 15.1209 9.70759 16.5207 10.3109C17.9264 10.9142 19.174 11.7957 20.2635 12.9554C20.3747 13.0667 20.5036 13.1223 20.65 13.1223C20.8023 13.1165 20.9341 13.055 21.0454 12.9378L22.3017 11.6727C22.4013 11.5672 22.454 11.453 22.4599 11.33C22.4657 11.2012 22.4247 11.087 22.3369 10.9874C21.6106 10.0854 20.6998 9.29173 19.6045 8.60644C18.5151 7.9153 17.3173 7.37644 16.0111 6.98986C14.7109 6.60329 13.3725 6.41 11.9961 6.41C10.6255 6.41 9.28712 6.60329 7.98097 6.98986C6.67483 7.37058 5.47411 7.90651 4.37882 8.59765C3.28939 9.2888 2.38152 10.0854 1.65524 10.9874C1.57324 11.087 1.53516 11.2012 1.54102 11.33C1.54688 11.453 1.59666 11.5672 1.69038 11.6727L2.95553 12.9554Z" fill="#D1D1D6"/>
<path id="p_3" d="M12.0048 21.5918C12.1278 21.5918 12.2508 21.5566 12.3738 21.4864C12.4968 21.4219 12.6491 21.2989 12.8307 21.1174L15.0184 19.0176C15.1121 18.9238 15.1648 18.8096 15.1765 18.6749C15.1941 18.5402 15.1589 18.4201 15.0711 18.3147C14.7313 17.893 14.2891 17.5445 13.7444 17.2692C13.1997 16.9939 12.6198 16.8563 12.0048 16.8563C11.3723 16.8563 10.7748 17.0027 10.2125 17.2956C9.65612 17.5826 9.20804 17.9545 8.86833 18.4113C8.80976 18.5051 8.79218 18.6076 8.81561 18.7188C8.83904 18.8301 8.89761 18.9297 8.99133 19.0176L11.1702 21.1174C11.3576 21.2931 11.5128 21.4161 11.6358 21.4864C11.7588 21.5566 11.8818 21.5918 12.0048 21.5918Z" fill="#FF9500"/>
</g>
</g>
</symbol><symbol id="ColoredIcons/ic/clr-battery-100" viewBox="0 0 36 28">
<g id="ic/clr-battery-100">
<path id="p" d="M8.96403 20.8321H24.2842C25.1766 20.8321 25.9713 20.7605 26.6682 20.6173C27.3652 20.4675 27.9645 20.1388 28.466 19.631C28.9676 19.1362 29.29 18.5437 29.4333 17.8536C29.5831 17.157 29.658 16.3627 29.658 15.4708V12.5313C29.658 11.6394 29.5831 10.8484 29.4333 10.1583C29.29 9.46168 28.9676 8.86272 28.466 8.36142C27.9645 7.86012 27.3652 7.53785 26.6682 7.39462C25.9713 7.24488 25.1766 7.17001 24.2842 7.17001H8.94449C8.06514 7.17001 7.27698 7.24488 6.58002 7.39462C5.88957 7.54436 5.29357 7.86663 4.79201 8.36142C4.29046 8.86923 3.96477 9.46819 3.81496 10.1583C3.67166 10.8484 3.60001 11.6296 3.60001 12.502V15.4708C3.60001 16.3627 3.67166 17.157 3.81496 17.8536C3.95826 18.5437 4.28394 19.1362 4.79201 19.631C5.29357 20.1388 5.88957 20.4675 6.58002 20.6173C7.27698 20.7605 8.07165 20.8321 8.96403 20.8321ZM8.70023 18.9083C8.19216 18.9083 7.7134 18.8627 7.26396 18.7716C6.82103 18.6804 6.46277 18.5014 6.1892 18.2345C5.91562 17.961 5.7365 17.6062 5.65182 17.17C5.56714 16.7273 5.5248 16.2488 5.5248 15.7345V12.2774C5.5248 11.7631 5.56714 11.2846 5.65182 10.8419C5.74301 10.3927 5.92214 10.0346 6.1892 9.76767C6.45626 9.49423 6.81451 9.31194 7.26396 9.22079C7.71992 9.12965 8.20518 9.08408 8.71977 9.08408H24.5578C25.0659 9.08408 25.5414 9.1329 25.9843 9.23056C26.4337 9.32171 26.792 9.50074 27.0591 9.76767C27.3326 10.0411 27.5118 10.3992 27.5964 10.8419C27.6876 11.2781 27.7332 11.7468 27.7332 12.2481V15.7345C27.7332 16.2488 27.6876 16.7273 27.5964 17.17C27.5118 17.6062 27.3326 17.961 27.0591 18.2345C26.792 18.5014 26.4337 18.6804 25.9843 18.7716C25.5414 18.8627 25.0659 18.9083 24.5578 18.9083H8.70023ZM31.0748 16.6524C31.3483 16.6329 31.6317 16.5125 31.9248 16.2911C32.2244 16.0632 32.4752 15.7573 32.6771 15.3731C32.879 14.9825 32.98 14.5235 32.98 13.9962C32.98 13.4754 32.879 13.0196 32.6771 12.629C32.4752 12.2384 32.2244 11.9324 31.9248 11.711C31.6317 11.4832 31.3483 11.3627 31.0748 11.3497V16.6524ZM8.31917 17.6876H24.9389C25.245 17.6876 25.4925 17.6615 25.6814 17.6095C25.8703 17.5574 26.0299 17.4695 26.1602 17.3458C26.3882 17.1114 26.5021 16.7045 26.5021 16.1251V11.877C26.5021 11.5711 26.4761 11.3237 26.424 11.1349C26.3719 10.9395 26.2839 10.78 26.1602 10.6563C26.0299 10.5326 25.8703 10.4448 25.6814 10.3927C25.4925 10.3406 25.245 10.3145 24.9389 10.3145H8.33872C8.02606 10.3145 7.77202 10.3406 7.57661 10.3927C7.3812 10.4448 7.22162 10.5326 7.09786 10.6563C6.9741 10.78 6.88616 10.9395 6.83405 11.1349C6.78194 11.3302 6.75589 11.5808 6.75589 11.8868V16.1251C6.75589 16.4311 6.78194 16.6785 6.83405 16.8673C6.88616 17.0561 6.9741 17.2156 7.09786 17.3458C7.22162 17.4695 7.3812 17.5574 7.57661 17.6095C7.77202 17.6615 8.01955 17.6876 8.31917 17.6876Z" fill="#34C759"/>
</g>
</symbol><symbol id="ColoredIcons/ic/clr-battery-75" viewBox="0 0 36 28">
<g id="ic/clr-battery-75">
<path id="p" d="M8.96403 20.7852H24.2842C25.1766 20.7852 25.9713 20.7135 26.6682 20.5703C27.3652 20.4206 27.9645 20.0918 28.466 19.584C28.9676 19.0892 29.29 18.4967 29.4333 17.8066C29.5831 17.11 29.658 16.3158 29.658 15.4238V12.4844C29.658 11.5924 29.5831 10.8014 29.4333 10.1113C29.29 9.41471 28.9676 8.81576 28.466 8.31445C27.9645 7.81315 27.3652 7.49089 26.6682 7.34766C25.9713 7.19792 25.1766 7.12305 24.2842 7.12305H8.94449C8.06514 7.12305 7.27698 7.19792 6.58002 7.34766C5.88957 7.4974 5.29357 7.81966 4.79201 8.31445C4.29046 8.82227 3.96477 9.42122 3.81496 10.1113C3.67166 10.8014 3.60001 11.5827 3.60001 12.4551V15.4238C3.60001 16.3158 3.67166 17.11 3.81496 17.8066C3.95826 18.4967 4.28394 19.0892 4.79201 19.584C5.29357 20.0918 5.88957 20.4206 6.58002 20.5703C7.27698 20.7135 8.07165 20.7852 8.96403 20.7852ZM8.70023 18.8613C8.19216 18.8613 7.7134 18.8158 7.26396 18.7246C6.82103 18.6335 6.46277 18.4544 6.1892 18.1875C5.91562 17.9141 5.7365 17.5592 5.65182 17.123C5.56714 16.6803 5.5248 16.2018 5.5248 15.6875V12.2305C5.5248 11.7161 5.56714 11.2376 5.65182 10.7949C5.74301 10.3457 5.92214 9.98763 6.1892 9.7207C6.45626 9.44727 6.81451 9.26497 7.26396 9.17383C7.71992 9.08268 8.20518 9.03711 8.71977 9.03711H24.5578C25.0659 9.03711 25.5414 9.08594 25.9843 9.18359C26.4337 9.27474 26.792 9.45378 27.0591 9.7207C27.3326 9.99414 27.5118 10.3522 27.5964 10.7949C27.6876 11.2311 27.7332 11.6999 27.7332 12.2012V15.6875C27.7332 16.2018 27.6876 16.6803 27.5964 17.123C27.5118 17.5592 27.3326 17.9141 27.0591 18.1875C26.792 18.4544 26.4337 18.6335 25.9843 18.7246C25.5414 18.8158 25.0659 18.8613 24.5578 18.8613H8.70023ZM31.0748 16.6055C31.3483 16.5859 31.6317 16.4655 31.9248 16.2441C32.2244 16.0163 32.4752 15.7103 32.6771 15.3262C32.879 14.9355 32.98 14.4766 32.98 13.9492C32.98 13.4284 32.879 12.9727 32.6771 12.582C32.4752 12.1914 32.2244 11.8854 31.9248 11.6641C31.6317 11.4362 31.3483 11.3158 31.0748 11.3027V16.6055ZM8.3094 17.6406H20.0047C20.3109 17.6406 20.5584 17.6146 20.7473 17.5625C20.9362 17.5104 21.0925 17.4225 21.2163 17.2988C21.4508 17.0645 21.568 16.6576 21.568 16.0781V11.8301C21.568 11.5241 21.542 11.2767 21.4899 11.0879C21.4377 10.8926 21.3466 10.7331 21.2163 10.6094C21.0925 10.4857 20.9329 10.3978 20.7375 10.3457C20.5486 10.2936 20.3044 10.2676 20.0047 10.2676H8.33872C8.01955 10.2676 7.76225 10.2936 7.56684 10.3457C7.37795 10.3978 7.22162 10.4857 7.09786 10.6094C6.9741 10.7331 6.88616 10.8926 6.83405 11.0879C6.78194 11.2832 6.75589 11.5339 6.75589 11.8398V16.0781C6.75589 16.3841 6.78194 16.6315 6.83405 16.8203C6.88616 17.0091 6.9741 17.1686 7.09786 17.2988C7.22162 17.4225 7.37795 17.5104 7.56684 17.5625C7.76225 17.6146 8.00977 17.6406 8.3094 17.6406Z" fill="#34C759"/>
</g>
</symbol><symbol id="ColoredIcons/ic/clr-battery-50" viewBox="0 0 36 28">
<g id="ic/clr-battery-50">
<path id="p" d="M8.96403 20.7852H24.2842C25.1766 20.7852 25.9713 20.7135 26.6682 20.5703C27.3652 20.4206 27.9645 20.0918 28.466 19.584C28.9676 19.0892 29.29 18.4967 29.4333 17.8066C29.5831 17.11 29.658 16.3158 29.658 15.4238V12.4844C29.658 11.5924 29.5831 10.8014 29.4333 10.1113C29.29 9.41471 28.9676 8.81576 28.466 8.31445C27.9645 7.81315 27.3652 7.49089 26.6682 7.34766C25.9713 7.19792 25.1766 7.12305 24.2842 7.12305H8.94449C8.06514 7.12305 7.27698 7.19792 6.58002 7.34766C5.88957 7.4974 5.29357 7.81966 4.79201 8.31445C4.29046 8.82227 3.96477 9.42122 3.81496 10.1113C3.67166 10.8014 3.60001 11.5827 3.60001 12.4551V15.4238C3.60001 16.3158 3.67166 17.11 3.81496 17.8066C3.95826 18.4967 4.28394 19.0892 4.79201 19.584C5.29357 20.0918 5.88957 20.4206 6.58002 20.5703C7.27698 20.7135 8.07165 20.7852 8.96403 20.7852ZM8.70023 18.8613C8.19216 18.8613 7.7134 18.8158 7.26396 18.7246C6.82103 18.6335 6.46277 18.4544 6.1892 18.1875C5.91562 17.9141 5.7365 17.5592 5.65182 17.123C5.56714 16.6803 5.5248 16.2018 5.5248 15.6875V12.2305C5.5248 11.7161 5.56714 11.2376 5.65182 10.7949C5.74301 10.3457 5.92214 9.98763 6.1892 9.7207C6.45626 9.44727 6.81451 9.26497 7.26396 9.17383C7.71992 9.08268 8.20518 9.03711 8.71977 9.03711H24.5578C25.0659 9.03711 25.5414 9.08594 25.9843 9.18359C26.4337 9.27474 26.792 9.45378 27.0591 9.7207C27.3326 9.99414 27.5118 10.3522 27.5964 10.7949C27.6876 11.2311 27.7332 11.6999 27.7332 12.2012V15.6875C27.7332 16.2018 27.6876 16.6803 27.5964 17.123C27.5118 17.5592 27.3326 17.9141 27.0591 18.1875C26.792 18.4544 26.4337 18.6335 25.9843 18.7246C25.5414 18.8158 25.0659 18.8613 24.5578 18.8613H8.70023ZM31.0748 16.6055C31.3483 16.5859 31.6317 16.4655 31.9248 16.2441C32.2244 16.0163 32.4752 15.7103 32.6771 15.3262C32.879 14.9355 32.98 14.4766 32.98 13.9492C32.98 13.4284 32.879 12.9727 32.6771 12.582C32.4752 12.1914 32.2244 11.8854 31.9248 11.6641C31.6317 11.4362 31.3483 11.3158 31.0748 11.3027V16.6055ZM8.3094 17.6406H15.0608C15.367 17.6406 15.6145 17.6146 15.8034 17.5625C15.9988 17.5104 16.1584 17.4225 16.2822 17.2988C16.5167 17.0645 16.6339 16.6576 16.6339 16.0781V11.8301C16.6339 11.5241 16.6046 11.2767 16.546 11.0879C16.4939 10.8926 16.4059 10.7331 16.2822 10.6094C16.1584 10.4857 15.9988 10.3978 15.8034 10.3457C15.608 10.2936 15.3605 10.2676 15.0608 10.2676H8.33872C8.01955 10.2676 7.76225 10.2936 7.56684 10.3457C7.37795 10.3978 7.22162 10.4857 7.09786 10.6094C6.9741 10.7331 6.88616 10.8926 6.83405 11.0879C6.78194 11.2832 6.75589 11.5339 6.75589 11.8398V16.0781C6.75589 16.3841 6.78194 16.6315 6.83405 16.8203C6.88616 17.0091 6.9741 17.1686 7.09786 17.2988C7.22162 17.4225 7.37795 17.5104 7.56684 17.5625C7.76225 17.6146 8.00977 17.6406 8.3094 17.6406Z" fill="#34C759"/>
</g>
</symbol><symbol id="ColoredIcons/ic/clr-battery-25" viewBox="0 0 36 28">
<g id="ic/clr-battery-25">
<path id="p" d="M8.96403 20.7852H24.2842C25.1766 20.7852 25.9713 20.7135 26.6682 20.5703C27.3652 20.4206 27.9645 20.0918 28.466 19.584C28.9676 19.0892 29.29 18.4967 29.4333 17.8066C29.5831 17.11 29.658 16.3158 29.658 15.4238V12.4844C29.658 11.5924 29.5831 10.8014 29.4333 10.1113C29.29 9.41471 28.9676 8.81576 28.466 8.31445C27.9645 7.81315 27.3652 7.49089 26.6682 7.34766C25.9713 7.19792 25.1766 7.12305 24.2842 7.12305H8.94449C8.06514 7.12305 7.27698 7.19792 6.58002 7.34766C5.88957 7.4974 5.29357 7.81966 4.79201 8.31445C4.29046 8.82227 3.96477 9.42122 3.81496 10.1113C3.67166 10.8014 3.60001 11.5827 3.60001 12.4551V15.4238C3.60001 16.3158 3.67166 17.11 3.81496 17.8066C3.95826 18.4967 4.28394 19.0892 4.79201 19.584C5.29357 20.0918 5.88957 20.4206 6.58002 20.5703C7.27698 20.7135 8.07165 20.7852 8.96403 20.7852ZM8.70023 18.8613C8.19216 18.8613 7.7134 18.8158 7.26396 18.7246C6.82103 18.6335 6.46277 18.4544 6.1892 18.1875C5.91562 17.9141 5.7365 17.5592 5.65182 17.123C5.56714 16.6803 5.5248 16.2018 5.5248 15.6875V12.2305C5.5248 11.7161 5.56714 11.2376 5.65182 10.7949C5.74301 10.3457 5.92214 9.98763 6.1892 9.7207C6.45626 9.44727 6.81451 9.26497 7.26396 9.17383C7.71992 9.08268 8.20518 9.03711 8.71977 9.03711H24.5578C25.0659 9.03711 25.5414 9.08594 25.9843 9.18359C26.4337 9.27474 26.792 9.45378 27.0591 9.7207C27.3326 9.99414 27.5118 10.3522 27.5964 10.7949C27.6876 11.2311 27.7332 11.6999 27.7332 12.2012V15.6875C27.7332 16.2018 27.6876 16.6803 27.5964 17.123C27.5118 17.5592 27.3326 17.9141 27.0591 18.1875C26.792 18.4544 26.4337 18.6335 25.9843 18.7246C25.5414 18.8158 25.0659 18.8613 24.5578 18.8613H8.70023ZM31.0748 16.6055C31.3483 16.5859 31.6317 16.4655 31.9248 16.2441C32.2244 16.0163 32.4752 15.7103 32.6771 15.3262C32.879 14.9355 32.98 14.4766 32.98 13.9492C32.98 13.4284 32.879 12.9727 32.6771 12.582C32.4752 12.1914 32.2244 11.8854 31.9248 11.6641C31.6317 11.4362 31.3483 11.3158 31.0748 11.3027V16.6055ZM8.3094 17.6406H10.3221C10.6218 17.6406 10.866 17.6146 11.0549 17.5625C11.2503 17.5104 11.4067 17.4225 11.5239 17.2988C11.7584 17.0645 11.8756 16.6576 11.8756 16.0781V11.8301C11.8756 11.5241 11.8496 11.2767 11.7975 11.0879C11.7454 10.8926 11.6574 10.7331 11.5337 10.6094C11.4099 10.4857 11.2503 10.3978 11.0549 10.3457C10.866 10.2936 10.6218 10.2676 10.3221 10.2676H8.33872C8.01955 10.2676 7.76225 10.2936 7.56684 10.3457C7.37795 10.3978 7.22162 10.4857 7.09786 10.6094C6.9741 10.7331 6.88616 10.8926 6.83405 11.0879C6.78194 11.2832 6.75589 11.5339 6.75589 11.8398V16.0781C6.75589 16.3841 6.78194 16.6315 6.83405 16.8203C6.88616 17.0091 6.9741 17.1686 7.09786 17.2988C7.22162 17.4225 7.37795 17.5104 7.56684 17.5625C7.76225 17.6146 8.00977 17.6406 8.3094 17.6406Z" fill="#FF9500"/>
</g>
</symbol><symbol id="ColoredIcons/ic/clr-battery-0" viewBox="0 0 36 28">
<g id="ic/clr-battery-0">
<path id="p" d="M8.96403 20.7852H24.2842C25.1766 20.7852 25.9713 20.7135 26.6682 20.5703C27.3652 20.4206 27.9645 20.0918 28.466 19.584C28.9676 19.0892 29.29 18.4967 29.4333 17.8066C29.5831 17.11 29.658 16.3158 29.658 15.4238V12.4844C29.658 11.5924 29.5831 10.8014 29.4333 10.1113C29.29 9.41471 28.9676 8.81576 28.466 8.31445C27.9645 7.81315 27.3652 7.49089 26.6682 7.34766C25.9713 7.19792 25.1766 7.12305 24.2842 7.12305H8.94449C8.06514 7.12305 7.27698 7.19792 6.58002 7.34766C5.88957 7.4974 5.29357 7.81966 4.79201 8.31445C4.29046 8.82227 3.96477 9.42122 3.81496 10.1113C3.67166 10.8014 3.60001 11.5827 3.60001 12.4551V15.4238C3.60001 16.3158 3.67166 17.11 3.81496 17.8066C3.95826 18.4967 4.28394 19.0892 4.79201 19.584C5.29357 20.0918 5.88957 20.4206 6.58002 20.5703C7.27698 20.7135 8.07165 20.7852 8.96403 20.7852ZM8.70023 18.8613C8.19216 18.8613 7.7134 18.8158 7.26396 18.7246C6.82103 18.6335 6.46277 18.4544 6.1892 18.1875C5.91562 17.9141 5.7365 17.5592 5.65182 17.123C5.56714 16.6803 5.5248 16.2018 5.5248 15.6875V12.2305C5.5248 11.7161 5.56714 11.2376 5.65182 10.7949C5.74301 10.3457 5.92214 9.98763 6.1892 9.7207C6.45626 9.44727 6.81451 9.26497 7.26396 9.17383C7.71992 9.08268 8.20518 9.03711 8.71977 9.03711H24.5578C25.0659 9.03711 25.5414 9.08594 25.9843 9.18359C26.4337 9.27474 26.792 9.45378 27.0591 9.7207C27.3326 9.99414 27.5118 10.3522 27.5964 10.7949C27.6876 11.2311 27.7332 11.6999 27.7332 12.2012V15.6875C27.7332 16.2018 27.6876 16.6803 27.5964 17.123C27.5118 17.5592 27.3326 17.9141 27.0591 18.1875C26.792 18.4544 26.4337 18.6335 25.9843 18.7246C25.5414 18.8158 25.0659 18.8613 24.5578 18.8613H8.70023ZM31.0748 16.6055C31.3483 16.5859 31.6317 16.4655 31.9248 16.2441C32.2244 16.0163 32.4752 15.7103 32.6771 15.3262C32.879 14.9355 32.98 14.4766 32.98 13.9492C32.98 13.4284 32.879 12.9727 32.6771 12.582C32.4752 12.1914 32.2244 11.8854 31.9248 11.6641C31.6317 11.4362 31.3483 11.3158 31.0748 11.3027V16.6055Z" fill="#FF3B30"/>
</g>
</symbol></svg>