<?xml version="1.0" encoding="UTF-8"?><!DOCTYPE svg PUBLIC "-//W3C//DTD SVG 1.1//EN" "http://www.w3.org/Graphics/SVG/1.1/DTD/svg11.dtd"><svg xmlns="http://www.w3.org/2000/svg" xmlns:xlink="http://www.w3.org/1999/xlink"><defs/><symbol id="MonoIcons/checkmark-circle-fill" viewBox="0 0 24 24">
<g id="checkmark-circle-fill">
<path id="color" d="M12 21C16.9226 21 21 16.9313 21 12C21 7.07744 16.9226 3 11.9913 3C7.06873 3 3 7.07744 3 12C3 16.9313 7.07744 21 12 21ZM11.0329 16.304C10.7018 16.304 10.4318 16.1559 10.1878 15.8422L8.05324 13.2459C7.89642 13.0542 7.81801 12.8451 7.81801 12.6273C7.81801 12.183 8.16651 11.817 8.61955 11.817C8.88964 11.817 9.09874 11.9216 9.31655 12.2004L10.9981 14.3349L14.605 8.56728C14.788 8.26234 15.0319 8.11423 15.3107 8.11423C15.7464 8.11423 16.1384 8.41917 16.1384 8.87222C16.1384 9.0726 16.0339 9.29042 15.9119 9.48209L11.8345 15.8422C11.6341 16.1384 11.3553 16.304 11.0329 16.304Z" fill="currentColor"/>
</g>
</symbol><symbol id="MonoIcons/power-circle-fill" viewBox="0 0 24 24">
<g id="power-circle-fill">
<path id="color" d="M11.9956 21C13.2264 21 14.3846 20.7648 15.4702 20.2943C16.5559 19.8296 17.5138 19.182 18.344 18.3514C19.1742 17.5208 19.8244 16.5624 20.2946 15.4763C20.7649 14.3901 21 13.2314 21 12C21 10.7686 20.7649 9.60987 20.2946 8.52372C19.8244 7.43756 19.1742 6.48209 18.344 5.65731C17.5138 4.82672 16.5559 4.17619 15.4702 3.70571C14.3846 3.23524 13.2235 3 11.9869 3C10.7562 3 9.59797 3.23524 8.51234 3.70571C7.43251 4.17619 6.4775 4.82672 5.64732 5.65731C4.82293 6.48209 4.17562 7.43756 3.70537 8.52372C3.23512 9.60987 3 10.7686 3 12C3 13.2314 3.23512 14.3901 3.70537 15.4763C4.17562 16.5624 4.82293 17.5208 5.64732 18.3514C6.4775 19.182 7.43541 19.8296 8.52105 20.2943C9.60668 20.7648 10.7649 21 11.9956 21ZM12.0131 16.696C11.3687 16.696 10.762 16.5741 10.193 16.3301C9.62409 16.0803 9.12482 15.7406 8.69521 15.3107C8.2656 14.8751 7.92598 14.3756 7.67634 13.8122C7.43251 13.243 7.3106 12.6389 7.3106 12C7.3106 11.3669 7.43832 10.7512 7.69376 10.153C7.95501 9.5547 8.31785 9.04356 8.78229 8.61955C8.95646 8.45692 9.13062 8.38141 9.30479 8.39303C9.48476 8.40465 9.6357 8.47435 9.75762 8.60213C9.88534 8.7241 9.9521 8.87512 9.95791 9.05518C9.96952 9.23524 9.89115 9.40949 9.72279 9.57793C9.38607 9.89739 9.12772 10.2662 8.94775 10.6844C8.77358 11.0968 8.6865 11.5353 8.6865 12C8.6865 12.6215 8.83454 13.1849 9.13062 13.6902C9.42671 14.1897 9.82438 14.5905 10.3237 14.8925C10.8287 15.1888 11.3919 15.3369 12.0131 15.3369C12.6226 15.3369 13.18 15.1888 13.6851 14.8925C14.1901 14.5905 14.5907 14.1897 14.8868 13.6902C15.1887 13.1849 15.3396 12.6215 15.3396 12C15.3338 11.5353 15.238 11.0968 15.0522 10.6844C14.8723 10.2662 14.6168 9.90029 14.2859 9.58664C14.1176 9.4182 14.0363 9.24395 14.0421 9.06389C14.0537 8.88383 14.1205 8.72991 14.2424 8.60213C14.3701 8.47435 14.5239 8.40465 14.7039 8.39303C14.8839 8.38141 15.0581 8.45692 15.2264 8.61955C15.6909 9.04937 16.0537 9.56341 16.3149 10.1617C16.5762 10.7541 16.7068 11.3669 16.7068 12C16.7068 12.6389 16.582 13.243 16.3324 13.8122C16.0885 14.3756 15.7489 14.8751 15.3135 15.3107C14.8839 15.7406 14.3846 16.0803 13.8157 16.3301C13.2525 16.5741 12.6517 16.696 12.0131 16.696ZM12.0131 12.2527C11.8099 12.2527 11.6444 12.1888 11.5167 12.061C11.389 11.9332 11.3251 11.7648 11.3251 11.5557V7.75702C11.3251 7.54792 11.389 7.37948 11.5167 7.25169C11.6444 7.1181 11.8099 7.05131 12.0131 7.05131C12.2105 7.05131 12.3701 7.1181 12.492 7.25169C12.6197 7.37948 12.6836 7.54792 12.6836 7.75702V11.5557C12.6836 11.7648 12.6197 11.9332 12.492 12.061C12.3701 12.1888 12.2105 12.2527 12.0131 12.2527Z" fill="currentColor"/>
</g>
</symbol><symbol id="MonoIcons/arrow-up-and-down-circle-fill" viewBox="0 0 24 24">
<g id="arrow-up-and-down-circle-fill">
<path id="color" d="M11.9956 21C13.2264 21 14.3846 20.7648 15.4702 20.2943C16.5559 19.8296 17.5138 19.182 18.344 18.3514C19.1742 17.5208 19.8244 16.5624 20.2946 15.4763C20.7649 14.3901 21 13.2314 21 12C21 10.7686 20.7649 9.60987 20.2946 8.52372C19.8244 7.43756 19.1742 6.48209 18.344 5.65731C17.5138 4.82672 16.5559 4.17619 15.4702 3.70571C14.3846 3.23524 13.2235 3 11.9869 3C10.7562 3 9.59797 3.23524 8.51234 3.70571C7.43251 4.17619 6.4775 4.82672 5.64732 5.65731C4.82293 6.48209 4.17562 7.43756 3.70537 8.52372C3.23512 9.60987 3 10.7686 3 12C3 13.2314 3.23512 14.3901 3.70537 15.4763C4.17562 16.5624 4.82293 17.5208 5.64732 18.3514C6.4775 19.182 7.43541 19.8296 8.52105 20.2943C9.60668 20.7648 10.7649 21 11.9956 21ZM12.0131 6.43272C12.2221 6.43272 12.4224 6.52856 12.6139 6.72023L15.1132 9.23814C15.2525 9.37173 15.3222 9.54598 15.3222 9.76089C15.3222 9.95837 15.2554 10.1239 15.1219 10.2575C14.9884 10.3853 14.8171 10.4492 14.6081 10.4492C14.5036 10.4492 14.4049 10.4288 14.312 10.3882C14.225 10.3417 14.1466 10.2836 14.0769 10.2139L13.5196 9.64763L12.6923 8.62827L12.7794 10.4579V13.5334L12.6923 15.363L13.5196 14.3349L14.0769 13.7686C14.1466 13.7047 14.225 13.6496 14.312 13.6031C14.4049 13.5566 14.5036 13.5334 14.6081 13.5334C14.8171 13.5334 14.9884 13.6002 15.1219 13.7338C15.2554 13.8674 15.3222 14.0329 15.3222 14.2304C15.3222 14.4453 15.2525 14.6196 15.1132 14.7531L12.6139 17.2711C12.4224 17.4627 12.2221 17.5586 12.0131 17.5586C11.7925 17.5586 11.5864 17.4627 11.3948 17.2711L8.90421 14.7531C8.75907 14.6137 8.6865 14.4395 8.6865 14.2304C8.6865 14.0329 8.75327 13.8674 8.88679 13.7338C9.02612 13.6002 9.20029 13.5334 9.40929 13.5334C9.51379 13.5334 9.60958 13.5566 9.69666 13.6031C9.78955 13.6496 9.87083 13.7047 9.94049 13.7686L10.4891 14.3349L11.3251 15.3717L11.238 13.5334V10.4579L11.3251 8.61955L10.4891 9.64763L9.94049 10.2139C9.87083 10.2836 9.78955 10.3417 9.69666 10.3882C9.60958 10.4288 9.51379 10.4492 9.40929 10.4492C9.20029 10.4492 9.02612 10.3853 8.88679 10.2575C8.75327 10.1239 8.6865 9.95837 8.6865 9.76089C8.6865 9.55179 8.75907 9.37754 8.90421 9.23814L11.3948 6.72023C11.5864 6.52856 11.7925 6.43272 12.0131 6.43272Z" fill="currentColor"/>
</g>
</symbol><symbol id="MonoIcons/personal-hotspot-circle-fill" viewBox="0 0 24 24">
<g id="personal-hotspot-circle-fill">
<path id="color" d="M12 21C13.2294 21 14.3853 20.7647 15.4676 20.2941C16.5559 19.8235 17.5147 19.1735 18.3441 18.3441C19.1735 17.5147 19.8235 16.5588 20.2941 15.4765C20.7647 14.3882 21 13.2294 21 12C21 10.7706 20.7647 9.61471 20.2941 8.53235C19.8235 7.44412 19.1735 6.48529 18.3441 5.65588C17.5147 4.82647 16.5559 4.17647 15.4676 3.70588C14.3794 3.23529 13.2206 3 11.9912 3C10.7618 3 9.60294 3.23529 8.51471 3.70588C7.43235 4.17647 6.47647 4.82647 5.64706 5.65588C4.82353 6.48529 4.17647 7.44412 3.70588 8.53235C3.23529 9.61471 3 10.7706 3 12C3 13.2294 3.23529 14.3882 3.70588 15.4765C4.17647 16.5588 4.82647 17.5147 5.65588 18.3441C6.48529 19.1735 7.44118 19.8235 8.52353 20.2941C9.61176 20.7647 10.7706 21 12 21ZM5.88529 11.0735C5.88529 10.3265 6.12353 9.71177 6.6 9.22941C7.08235 8.74118 7.69706 8.49706 8.44412 8.49706H12.2206C12.9676 8.49706 13.5794 8.74118 14.0559 9.22941C14.5382 9.71177 14.7794 10.3265 14.7794 11.0735C14.7794 11.8206 14.5382 12.4353 14.0559 12.9176C13.5794 13.4 12.9676 13.6412 12.2206 13.6412H11.0118C10.8765 13.5059 10.7941 13.3412 10.7647 13.1471C10.7412 12.9529 10.7529 12.7882 10.8 12.6529H12.1676C12.6382 12.6529 13.0176 12.5088 13.3059 12.2206C13.6 11.9265 13.7471 11.5441 13.7471 11.0735C13.7471 10.6088 13.6 10.2294 13.3059 9.93529C13.0176 9.63529 12.6382 9.48529 12.1676 9.48529H8.50588C8.03529 9.48529 7.65294 9.63529 7.35882 9.93529C7.07059 10.2294 6.92647 10.6088 6.92647 11.0735C6.92647 11.5441 7.07059 11.9265 7.35882 12.2206C7.65294 12.5088 8.03529 12.6529 8.50588 12.6529H8.7C8.68235 12.8 8.67941 12.9706 8.69118 13.1647C8.70294 13.3588 8.72059 13.5176 8.74412 13.6412H8.44412C7.69706 13.6412 7.08235 13.4 6.6 12.9176C6.12353 12.4353 5.88529 11.8206 5.88529 11.0735ZM9.20294 12.9971C9.20294 12.25 9.44118 11.6353 9.91765 11.1529C10.4 10.6706 11.0176 10.4294 11.7706 10.4294H12.9706C13.1118 10.5529 13.1941 10.7176 13.2176 10.9235C13.2412 11.1235 13.2235 11.2882 13.1647 11.4176H11.8147C11.3441 11.4176 10.9618 11.5647 10.6676 11.8588C10.3794 12.1471 10.2353 12.5265 10.2353 12.9971C10.2353 13.4676 10.3824 13.85 10.6765 14.1441C10.9706 14.4382 11.35 14.5853 11.8147 14.5853H15.4853C15.95 14.5853 16.3294 14.4382 16.6235 14.1441C16.9176 13.85 17.0647 13.4676 17.0647 12.9971C17.0647 12.5265 16.9176 12.1471 16.6235 11.8588C16.3294 11.5647 15.95 11.4176 15.4853 11.4176H15.2824C15.3059 11.2 15.3088 11.0147 15.2912 10.8618C15.2794 10.7029 15.2618 10.5588 15.2382 10.4294H15.5382C16.2853 10.4294 16.9 10.6706 17.3824 11.1529C17.8647 11.6353 18.1059 12.25 18.1059 12.9971C18.1059 13.7441 17.8647 14.3618 17.3824 14.85C16.9 15.3324 16.2853 15.5735 15.5382 15.5735H11.7706C11.0235 15.5735 10.4088 15.3324 9.92647 14.85C9.44412 14.3618 9.20294 13.7441 9.20294 12.9971Z" fill="currentColor"/>
</g>
</symbol><symbol id="MonoIcons/track-end-line" viewBox="0 0 24 24">
<g id="track-end-line">
<path id="color" fill-rule="evenodd" clip-rule="evenodd" d="M3 3H4.5V5.5H19.5V3H21V21H19.5V15.5H4.5V21H3V3ZM19.5 12V9H16.5V6H13.5V9H10.5V6H7.5V9H4.5V12H7.5V15H10.5V12H13.5V15H16.5V12H19.5ZM16.5 12H13.5V9H16.5V12ZM10.5 12H7.5V9H10.5V12Z" fill="currentColor"/>
</g>
</symbol><symbol id="MonoIcons/track-section-1" viewBox="0 0 24 24">
<g id="track-section-1">
<path id="color" fill-rule="evenodd" clip-rule="evenodd" d="M3 3H4.5V5.5H19.5V3H21V21H19.5V15.5H4.5V21H3V3ZM13.2031 13H11.7695V8.65625H11.6953L10.3359 9.57422V8.33984L11.7695 7.36328H13.2031V13Z" fill="currentColor"/>
</g>
</symbol><symbol id="MonoIcons/track-section-2" viewBox="0 0 24 24">
<g id="track-section-2">
<path id="color" fill-rule="evenodd" clip-rule="evenodd" d="M3 3H4.5V5.5H19.5V3H21V21H19.5V15.5H4.5V21H3V3ZM14.168 13H9.88281V12.043L11.6523 10.3945C11.9284 10.1419 12.1419 9.9349 12.293 9.77344C12.4466 9.60938 12.5521 9.47005 12.6094 9.35547C12.6693 9.23828 12.6992 9.1224 12.6992 9.00781V8.99219C12.6992 8.85156 12.6693 8.72917 12.6094 8.625C12.5495 8.52083 12.4622 8.4401 12.3477 8.38281C12.2331 8.32552 12.0977 8.29688 11.9414 8.29688C11.7773 8.29688 11.6328 8.33073 11.5078 8.39844C11.3854 8.46615 11.2891 8.5599 11.2188 8.67969C11.1484 8.79688 11.1133 8.93229 11.1133 9.08594V9.11719L9.80078 9.11328V9.08984C9.80078 8.71484 9.89193 8.38672 10.0742 8.10547C10.2591 7.82422 10.5156 7.60547 10.8438 7.44922C11.1745 7.29036 11.5586 7.21094 11.9961 7.21094C12.4154 7.21094 12.7812 7.28125 13.0938 7.42188C13.4089 7.5599 13.6536 7.75391 13.8281 8.00391C14.0052 8.25391 14.0938 8.54557 14.0938 8.87891V8.89844C14.0938 9.10938 14.0495 9.31901 13.9609 9.52734C13.8724 9.73568 13.7266 9.95833 13.5234 10.1953C13.3203 10.4297 13.0456 10.6966 12.6992 10.9961L11.7891 11.7945V11.8828H14.168V13Z" fill="currentColor"/>
</g>
</symbol><symbol id="MonoIcons/play-circle-fill" viewBox="0 0 24 24">
<g id="play-circle-fill">
<path id="color" d="M12 21C13.2311 21 14.3902 20.764 15.4775 20.2921C16.5647 19.8259 17.5197 19.1784 18.3423 18.3496C19.1707 17.5209 19.8207 16.5655 20.2924 15.4835C20.7641 14.3957 21 13.2331 21 11.9957C21 10.764 20.7641 9.60719 20.2924 8.52518C19.8207 7.43741 19.1707 6.47914 18.3423 5.65036C17.5197 4.82158 16.5618 4.1741 15.4688 3.70791C14.3816 3.23597 13.2224 3 11.9914 3C10.7603 3 9.60115 3.23597 8.5139 3.70791C7.42665 4.1741 6.46884 4.82158 5.64046 5.65036C4.81783 6.47914 4.17066 7.43741 3.69895 8.52518C3.23298 9.60719 3 10.764 3 11.9957C3 13.2331 3.23298 14.3957 3.69895 15.4835C4.17066 16.5655 4.82071 17.5209 5.64909 18.3496C6.47747 19.1784 7.43528 19.8259 8.52253 20.2921C9.60978 20.764 10.7689 21 12 21ZM10.2915 15.5698C10.0786 15.6964 9.87152 15.7137 9.67018 15.6216C9.46884 15.5295 9.36817 15.3741 9.36817 15.1554V8.8446C9.36817 8.62014 9.47172 8.46475 9.67881 8.37842C9.89166 8.29209 10.0959 8.30647 10.2915 8.42158L15.5292 11.5036C15.7133 11.6129 15.8054 11.7799 15.8054 12.0043C15.8111 12.223 15.7191 12.3928 15.5292 12.5137L10.2915 15.5698Z" fill="currentColor"/>
</g>
</symbol>
<symbol id="MonoIcons/pause-circle-fill" viewBox="0 0 24 24">
  <g id="pause-circle-fill">
    <path
      id="color"
      d="M12 21C13.2311 21 14.3902 20.764 15.4775 20.2921C16.5647 19.8259 17.5197 19.1784 18.3423 18.3496C19.1707 17.5209 19.8207 16.5655 20.2924 15.4835C20.7641 14.3957 21 13.2331 21 11.9957C21 10.764 20.7641 9.60719 20.2924 8.52518C19.8207 7.43741 19.1707 6.47914 18.3423 5.65036C17.5197 4.82158 16.5618 4.1741 15.4688 3.70791C14.3816 3.23597 13.2224 3 11.9914 3C10.7603 3 9.60115 3.23597 8.5139 3.70791C7.42665 4.1741 6.46884 4.82158 5.64046 5.65036C4.81783 6.47914 4.17066 7.43741 3.69895 8.52518C3.23298 9.60719 3 10.764 3 11.9957C3 13.2331 3.23298 14.3957 3.69895 15.4835C4.17066 16.5655 4.82071 17.5209 5.64909 18.3496C6.47747 19.1784 7.43528 19.8259 8.52253 20.2921C9.60978 20.764 10.7689 21 12 21ZM9.41131 15.5612C9.17546 15.5612 8.99712 15.5007 8.87632 15.3799C8.76127 15.2532 8.70374 15.095 8.70374 14.905V9.0777C8.70374 8.87626 8.76127 8.71511 8.87632 8.59424C8.99712 8.47338 9.17546 8.41295 9.41131 8.41295H10.395C10.6251 8.41295 10.7977 8.47338 10.9128 8.59424C11.0336 8.71511 11.094 8.87626 11.094 9.0777V14.905C11.094 15.095 11.0336 15.2532 10.9128 15.3799C10.7977 15.5007 10.6251 15.5612 10.395 15.5612H9.41131ZM13.6309 15.5612C13.395 15.5612 13.2167 15.5007 13.0959 15.3799C12.9808 15.2532 12.9233 15.095 12.9233 14.905V9.0777C12.9233 8.87626 12.9808 8.71511 13.0959 8.59424C13.2167 8.47338 13.395 8.41295 13.6309 8.41295H14.6059C14.8418 8.41295 15.0173 8.47338 15.1323 8.59424C15.2531 8.71511 15.3135 8.87626 15.3135 9.0777V14.905C15.3135 15.095 15.2531 15.2532 15.1323 15.3799C15.0173 15.5007 14.8418 15.5612 14.6059 15.5612H13.6309Z"
      fill="currentColor"
    />
  </g>
</symbol>
<symbol id="MonoIcons/arrow-triangle-backward-fill" viewBox="0 0 24 24">
<g id="arrow-triangle-backward-fill">
<path id="color" d="M17.8008 4.62305C17.6133 4.62305 17.4346 4.6582 17.2646 4.72852C17.1006 4.79883 16.916 4.88379 16.7109 4.9834L5.61914 10.3447C5.22656 10.5381 4.94824 10.7402 4.78418 10.9512C4.62598 11.1562 4.54688 11.3936 4.54688 11.6631C4.54688 11.9326 4.62598 12.1729 4.78418 12.3838C4.94824 12.5889 5.22656 12.7881 5.61914 12.9814L16.7109 18.3428C16.916 18.4482 17.1035 18.5332 17.2734 18.5977C17.4434 18.668 17.6191 18.7031 17.8008 18.7031C18.1523 18.7031 18.4395 18.5771 18.6621 18.3252C18.8848 18.0732 18.9961 17.7334 18.9961 17.3057V6.02051C18.9961 5.59277 18.8818 5.25293 18.6533 5.00098C18.4307 4.74902 18.1465 4.62305 17.8008 4.62305Z" fill="currentColor"/>
</g>
</symbol><symbol id="MonoIcons/arrow-triangle-right-fill" viewBox="0 0 24 24">
<g id="arrow-triangle-right-fill">
<path id="color" d="M6.20801 18.7031C6.38965 18.7031 6.5625 18.668 6.72656 18.5977C6.89648 18.5332 7.08398 18.4482 7.28906 18.3428L18.3809 12.9814C18.7734 12.7881 19.0488 12.5889 19.207 12.3838C19.3711 12.1729 19.4531 11.9326 19.4531 11.6631C19.4531 11.3936 19.3711 11.1562 19.207 10.9512C19.0488 10.7402 18.7734 10.5381 18.3809 10.3447L7.28906 4.9834C7.08398 4.88379 6.89648 4.79883 6.72656 4.72852C6.55664 4.6582 6.38086 4.62305 6.19922 4.62305C5.84766 4.62305 5.55762 4.74902 5.3291 5.00098C5.10645 5.25293 4.99512 5.59277 4.99512 6.02051L5.00391 17.3057C5.00391 17.7334 5.11523 18.0732 5.33789 18.3252C5.56641 18.5771 5.85645 18.7031 6.20801 18.7031Z" fill="currentColor"/>
</g>
</symbol><symbol id="MonoIcons/gear" viewBox="0 0 24 24">
<g id="gear">
<path id="color" d="M12.0042 20.2144C12.2039 20.2144 12.4036 20.1978 12.6117 20.1812L13.0777 21.0629C13.1776 21.2792 13.394 21.3873 13.652 21.3541C13.885 21.3125 14.0598 21.1295 14.0931 20.8882L14.2346 19.8983C14.6257 19.7902 15.0085 19.6488 15.3747 19.4907L16.1071 20.1396C16.2902 20.3143 16.5232 20.3475 16.7562 20.2228C16.9643 20.098 17.0558 19.8734 17.0059 19.6322L16.7979 18.6589C17.1224 18.426 17.447 18.1681 17.7383 17.877L18.6454 18.2596C18.8784 18.3594 19.1032 18.3012 19.2862 18.0933C19.436 17.9186 19.461 17.6773 19.3279 17.4611L18.7952 16.6126C19.0283 16.2882 19.2197 15.9305 19.3944 15.5561L20.3931 15.606C20.6428 15.6227 20.8509 15.4813 20.9258 15.2484C21.009 15.0154 20.9341 14.7825 20.7427 14.6328L19.9604 14.0172C20.0602 13.6346 20.1435 13.227 20.1767 12.8111L21.1172 12.5116C21.3585 12.4284 21.5 12.2454 21.5 11.9959C21.5 11.7463 21.3585 11.5633 21.1172 11.4801L20.1767 11.1806C20.1435 10.7647 20.0602 10.3654 19.9604 9.97448L20.7427 9.35892C20.9341 9.20918 21.009 8.98459 20.9258 8.75167C20.8509 8.51876 20.6428 8.38566 20.3931 8.39398L19.3944 8.43557C19.2197 8.06124 19.0283 7.71187 18.7952 7.37081L19.3279 6.53065C19.4527 6.33101 19.436 6.08146 19.2862 5.90677C19.1032 5.69881 18.8784 5.6489 18.6454 5.74041L17.7383 6.11473C17.447 5.83191 17.1224 5.56572 16.7979 5.34112L17.0059 4.36787C17.0558 4.11831 16.9643 3.89372 16.7562 3.77726C16.5232 3.65248 16.2819 3.67744 16.1071 3.85213L15.3747 4.50928C15.0085 4.34291 14.6174 4.20982 14.2346 4.09336L14.0931 3.1201C14.0598 2.87055 13.885 2.68755 13.652 2.64596C13.394 2.61268 13.1776 2.72082 13.0777 2.92046L12.6117 3.81885C12.4036 3.80221 12.2039 3.78558 12.0042 3.78558C11.7878 3.78558 11.6047 3.80221 11.3883 3.81885L10.9223 2.92878C10.8141 2.72082 10.606 2.61268 10.348 2.64596C10.1067 2.68755 9.94021 2.87055 9.90692 3.1201L9.76544 4.09336C9.38261 4.20982 8.99146 4.34291 8.61695 4.50928L7.8929 3.86044C7.70981 3.67744 7.47678 3.6608 7.24376 3.77726C7.0357 3.89372 6.94415 4.11831 6.99409 4.37619L7.20215 5.34112C6.87757 5.56572 6.553 5.83191 6.26172 6.11473L5.35458 5.74041C5.12155 5.6489 4.88852 5.69881 4.71375 5.90677C4.56395 6.08146 4.53898 6.33101 4.67214 6.52234L5.20477 7.37081C4.97175 7.71187 4.78033 8.06124 4.60556 8.43557L3.60688 8.39398C3.35721 8.38566 3.14915 8.51876 3.06592 8.75167C2.99102 8.98459 3.0576 9.20918 3.25734 9.35892L4.03964 9.97448C3.93977 10.3654 3.85655 10.7647 3.83158 11.1806L2.88283 11.4801C2.64148 11.5633 2.5 11.7463 2.5 11.9959C2.5 12.2454 2.64148 12.4284 2.88283 12.5116L3.83158 12.8111C3.85655 13.227 3.93977 13.6346 4.03964 14.0172L3.25734 14.6328C3.06592 14.7825 2.99934 15.0154 3.06592 15.2484C3.14915 15.4813 3.35721 15.6227 3.60688 15.606L4.60556 15.5561C4.78033 15.9305 4.97175 16.2882 5.19645 16.6126L4.67214 17.4694C4.53898 17.669 4.56395 17.9186 4.71375 18.0933C4.88852 18.3012 5.12155 18.3594 5.35458 18.2596L6.26172 17.877C6.553 18.1681 6.87757 18.426 7.20215 18.6589L6.99409 19.6322C6.95247 19.8734 7.0357 20.098 7.24376 20.2228C7.47678 20.3475 7.70981 20.3143 7.8929 20.1479L8.61695 19.4907C8.99146 19.6488 9.37429 19.7902 9.76544 19.8983L9.90692 20.8882C9.94021 21.1295 10.1067 21.3125 10.348 21.3541C10.606 21.3873 10.8141 21.2792 10.9223 21.0629L11.3883 20.1812C11.5964 20.1978 11.7878 20.2144 12.0042 20.2144ZM14.2013 11.347C13.7935 10.2823 12.9612 9.69997 11.9875 9.69997C11.846 9.69997 11.6962 9.71661 11.4382 9.77484L9.18287 5.90677C10.0318 5.51581 10.9888 5.29121 12.0042 5.29121C15.5162 5.29121 18.2959 7.93647 18.6121 11.347H14.2013ZM5.3629 12.0042C5.3629 9.76652 6.41152 7.80337 8.05103 6.58057L10.323 10.4653C9.88195 10.9561 9.68222 11.4801 9.68222 12.0291C9.68222 12.5532 9.87363 13.0523 10.323 13.5514L7.99277 17.3695C6.38655 16.1467 5.3629 14.2086 5.3629 12.0042ZM10.9888 12.0208C10.9888 11.4635 11.4632 11.0226 11.9958 11.0226C12.5534 11.0226 13.0112 11.4635 13.0112 12.0208C13.0112 12.5698 12.5534 13.0273 11.9958 13.0273C11.4715 13.0273 10.9888 12.5698 10.9888 12.0208ZM12.0042 18.7005C10.9639 18.7005 9.99014 18.4759 9.11629 18.06L11.4299 14.2751C11.6796 14.3333 11.846 14.3416 11.9875 14.3416C12.9696 14.3416 13.7935 13.751 14.2013 12.653H18.6121C18.2959 16.0636 15.5162 18.7005 12.0042 18.7005Z" fill="currentColor"/>
</g>
</symbol><symbol id="MonoIcons/person-crop-circle" viewBox="0 0 24 24">
<g id="person-crop-circle">
<path id="color" d="M11.9956 20.9982C13.2264 20.9982 14.3846 20.763 15.4702 20.2926C16.5559 19.828 17.5138 19.1804 18.344 18.3499C19.1742 17.5194 19.8244 16.5611 20.2946 15.475C20.7649 14.389 21 13.2304 21 11.9991C21 10.7679 20.7649 9.60922 20.2946 8.52317C19.8244 7.43712 19.1742 6.48175 18.344 5.65705C17.5138 4.82654 16.5559 4.17607 15.4702 3.70564C14.3846 3.23521 13.2235 3 11.9869 3C10.7562 3 9.59797 3.23521 8.51234 3.70564C7.43251 4.17607 6.4775 4.82654 5.64732 5.65705C4.82293 6.48175 4.17562 7.43712 3.70537 8.52317C3.23512 9.60922 3 10.7679 3 11.9991C3 13.2304 3.23512 14.389 3.70537 15.475C4.17562 16.5611 4.82293 17.5194 5.64732 18.3499C6.4775 19.1804 7.43541 19.828 8.52105 20.2926C9.60668 20.763 10.7649 20.9982 11.9956 20.9982ZM11.9956 19.221C10.9971 19.221 10.0595 19.0352 9.18287 18.6635C8.31205 18.2918 7.54572 17.7749 6.88389 17.1128C6.22787 16.4508 5.71408 15.6841 5.34253 14.813C4.97097 13.9418 4.7852 13.0038 4.7852 11.9991C4.7852 11.0002 4.97097 10.0651 5.34253 9.19397C5.71408 8.317 6.22787 7.54747 6.88389 6.88539C7.53991 6.2233 8.30334 5.70641 9.17417 5.33472C10.0508 4.96302 10.9884 4.77717 11.9869 4.77717C12.9913 4.77717 13.9289 4.96302 14.7997 5.33472C15.6705 5.70641 16.4369 6.2233 17.0987 6.88539C17.7663 7.54747 18.2859 8.317 18.6575 9.19397C19.029 10.0651 19.2148 11.0002 19.2148 11.9991C19.2148 13.0038 19.029 13.9418 18.6575 14.813C18.2859 15.6841 17.7692 16.4508 17.1074 17.1128C16.4514 17.7749 15.6851 18.2918 14.8084 18.6635C13.9376 19.0352 13 19.221 11.9956 19.221ZM17.8041 17.7488L17.7692 17.6007C17.5835 17.1709 17.2264 16.7586 16.6981 16.3636C16.1756 15.9629 15.5138 15.6377 14.7126 15.3879C13.9173 15.1324 13.0116 15.0046 11.9956 15.0046C10.9913 15.0046 10.0885 15.1324 9.28737 15.3879C8.48621 15.6377 7.82148 15.9629 7.29318 16.3636C6.77068 16.7586 6.41655 17.168 6.23077 17.592L6.19594 17.7488C6.74165 18.2541 7.35994 18.678 8.0508 19.0207C8.74165 19.3691 9.43251 19.6334 10.1234 19.8134C10.82 19.9935 11.4441 20.0835 11.9956 20.0835C12.553 20.0835 13.1771 19.9935 13.8679 19.8134C14.5588 19.6334 15.2496 19.3691 15.9405 19.0207C16.6313 18.678 17.2525 18.2541 17.8041 17.7488ZM11.9956 13.5672C12.5588 13.573 13.0668 13.4336 13.5196 13.149C13.9724 12.8587 14.3324 12.4637 14.5994 11.9643C14.8665 11.459 15 10.8956 15 10.2742C15 9.69343 14.8636 9.15912 14.5907 8.67127C14.3237 8.17761 13.9637 7.78268 13.5109 7.48649C13.0639 7.19029 12.5588 7.04219 11.9956 7.04219C11.4383 7.04219 10.9303 7.19029 10.4717 7.48649C10.0189 7.78268 9.65893 8.17761 9.39187 8.67127C9.12482 9.15912 8.99419 9.69343 9 10.2742C9.00581 10.8956 9.13933 11.4561 9.40058 11.9556C9.66763 12.4492 10.0276 12.8412 10.4804 13.1316C10.9332 13.4162 11.4383 13.5614 11.9956 13.5672Z" fill="currentColor"/>
</g>
</symbol><symbol id="MonoIcons/questionmark-circle" viewBox="0 0 24 24">
<g id="questionmark-circle">
<path id="color" d="M11.9956 20.9982C13.2264 20.9982 14.3846 20.763 15.4702 20.2926C16.5559 19.828 17.5138 19.1804 18.344 18.3499C19.1742 17.5194 19.8244 16.5611 20.2946 15.475C20.7649 14.389 21 13.2304 21 11.9991C21 10.7679 20.7649 9.60922 20.2946 8.52317C19.8244 7.43712 19.1742 6.48175 18.344 5.65705C17.5138 4.82654 16.5559 4.17607 15.4702 3.70564C14.3846 3.23521 13.2235 3 11.9869 3C10.7562 3 9.59797 3.23521 8.51234 3.70564C7.43251 4.17607 6.4775 4.82654 5.64732 5.65705C4.82293 6.48175 4.17562 7.43712 3.70537 8.52317C3.23512 9.60922 3 10.7679 3 11.9991C3 13.2304 3.23512 14.389 3.70537 15.475C4.17562 16.5611 4.82293 17.5194 5.64732 18.3499C6.4775 19.1804 7.43541 19.828 8.52105 20.2926C9.60668 20.763 10.7649 20.9982 11.9956 20.9982ZM11.9956 19.221C10.9971 19.221 10.0595 19.0352 9.18287 18.6635C8.31205 18.2918 7.54572 17.7749 6.88389 17.1128C6.22787 16.4508 5.71408 15.6841 5.34253 14.813C4.97097 13.9418 4.7852 13.0038 4.7852 11.9991C4.7852 11.0002 4.97097 10.0651 5.34253 9.19397C5.71408 8.317 6.22787 7.54747 6.88389 6.88539C7.53991 6.2233 8.30334 5.70641 9.17417 5.33472C10.0508 4.96302 10.9884 4.77717 11.9869 4.77717C12.9913 4.77717 13.9289 4.96302 14.7997 5.33472C15.6705 5.70641 16.4369 6.2233 17.0987 6.88539C17.7663 7.54747 18.2859 8.317 18.6575 9.19397C19.029 10.0651 19.2148 11.0002 19.2148 11.9991C19.2148 13.0038 19.029 13.9418 18.6575 14.813C18.2859 15.6841 17.7692 16.4508 17.1074 17.1128C16.4514 17.7749 15.6851 18.2918 14.8084 18.6635C13.9376 19.0352 13 19.221 11.9956 19.221ZM11.8041 13.7327C12.0421 13.7327 12.2308 13.6717 12.3701 13.5498C12.5152 13.4278 12.5936 13.2797 12.6052 13.1055C12.611 13.0881 12.6139 13.0706 12.6139 13.0532C12.6139 13.03 12.6139 13.0126 12.6139 13.0009C12.6255 12.7744 12.7068 12.577 12.8578 12.4086C13.0087 12.2401 13.2293 12.063 13.5196 11.8771C13.9434 11.5926 14.283 11.3022 14.5385 11.006C14.7997 10.7098 14.9303 10.3061 14.9303 9.79507C14.9303 9.31302 14.7997 8.90358 14.5385 8.56673C14.2772 8.22988 13.9289 7.97143 13.4935 7.79139C13.0639 7.61135 12.5936 7.52133 12.0827 7.52133C11.3338 7.52133 10.7155 7.66943 10.2279 7.96563C9.74601 8.26182 9.43832 8.61319 9.30479 9.01973C9.27576 9.09523 9.25254 9.17073 9.23512 9.24624C9.22351 9.31593 9.21771 9.39143 9.21771 9.47274C9.21771 9.68182 9.28737 9.84734 9.42671 9.9693C9.56604 10.0913 9.72569 10.1522 9.90566 10.1522C10.0624 10.1522 10.1959 10.1203 10.3062 10.0564C10.4224 9.99253 10.521 9.90542 10.6023 9.79507L10.7417 9.61212C10.8403 9.45531 10.9507 9.32464 11.0726 9.2201C11.2003 9.10975 11.3367 9.02554 11.4819 8.96746C11.6328 8.90939 11.7954 8.88035 11.9695 8.88035C12.3237 8.88035 12.6081 8.97618 12.8229 9.16783C13.0435 9.35368 13.1538 9.5947 13.1538 9.8909C13.1538 10.1639 13.061 10.3904 12.8752 10.5704C12.6952 10.7504 12.4194 10.9682 12.0479 11.2238C11.7344 11.4387 11.4761 11.671 11.2729 11.9207C11.0755 12.1704 10.9768 12.4957 10.9768 12.8964C10.9768 12.908 10.9768 12.9225 10.9768 12.94C10.9768 12.9574 10.9768 12.9748 10.9768 12.9922C10.9768 13.4859 11.2525 13.7327 11.8041 13.7327ZM11.7866 16.4072C12.0711 16.4072 12.312 16.3172 12.5094 16.1371C12.7068 15.9571 12.8055 15.7277 12.8055 15.4489C12.8055 15.1701 12.7068 14.9407 12.5094 14.7607C12.312 14.5807 12.0711 14.4906 11.7866 14.4906C11.5022 14.4906 11.2612 14.5836 11.0639 14.7694C10.8665 14.9494 10.7678 15.1759 10.7678 15.4489C10.7678 15.7219 10.8665 15.9513 11.0639 16.1371C11.2671 16.3172 11.508 16.4072 11.7866 16.4072Z" fill="currentColor"/>
</g>
</symbol><symbol id="MonoIcons/timer" viewBox="0 0 24 24">
<g id="timer">
<path id="color" d="M11.9956 20.9982C13.2322 20.9982 14.3933 20.763 15.479 20.2926C16.5646 19.828 17.5196 19.1804 18.344 18.3499C19.1742 17.5252 19.8244 16.5698 20.2946 15.4838C20.7649 14.3977 21 13.2362 21 11.9991C21 10.7621 20.7649 9.60051 20.2946 8.51446C19.8244 7.42841 19.1771 6.47303 18.3527 5.64833C17.5283 4.81783 16.5733 4.17026 15.4877 3.70564C14.402 3.23521 13.2409 3 12.0044 3C11.7373 3 11.5312 3.0755 11.3861 3.2265C11.2467 3.3717 11.1771 3.57497 11.1771 3.83632V7.05091C11.1771 7.2716 11.2467 7.45745 11.3861 7.60845C11.5254 7.75945 11.7025 7.83495 11.9173 7.83495C12.1379 7.83495 12.3179 7.75945 12.4572 7.60845C12.5965 7.45745 12.6662 7.2716 12.6662 7.05091V3.79276L11.9086 4.75975C12.9245 4.74813 13.8737 4.92817 14.7562 5.29987C15.6386 5.66576 16.4136 6.17974 17.0813 6.84183C17.7489 7.50391 18.2685 8.27634 18.6401 9.15912C19.0174 10.0419 19.2061 10.9886 19.2061 11.9991C19.2061 12.998 19.0203 13.936 18.6488 14.813C18.283 15.6841 17.7692 16.4508 17.1074 17.1128C16.4514 17.7691 15.6851 18.2831 14.8084 18.6548C13.9376 19.0323 13 19.221 11.9956 19.221C10.9913 19.221 10.0508 19.0323 9.17417 18.6548C8.30334 18.2831 7.53701 17.7691 6.87518 17.1128C6.21916 16.4508 5.70537 15.6841 5.33382 14.813C4.96226 13.936 4.77649 12.998 4.77649 11.9991C4.78229 11.1338 4.92743 10.312 5.2119 9.53372C5.50218 8.75548 5.90276 8.05565 6.41364 7.43422C6.57039 7.21352 6.65457 6.98992 6.66618 6.76342C6.6836 6.53692 6.59942 6.33365 6.41364 6.15361C6.23367 5.96776 6.01016 5.88645 5.74311 5.90968C5.48186 5.93291 5.25544 6.0694 5.06386 6.31913C4.42525 7.09737 3.92017 7.97143 3.54862 8.94133C3.18287 9.90542 3 10.9247 3 11.9991C3 13.2362 3.23222 14.3977 3.69666 15.4838C4.16691 16.5698 4.81422 17.5252 5.63861 18.3499C6.4688 19.1804 7.42671 19.828 8.51234 20.2926C9.59797 20.763 10.7591 20.9982 11.9956 20.9982ZM13.3977 13.332C13.6415 13.0764 13.7866 12.8064 13.8331 12.5218C13.8853 12.2314 13.8476 11.9497 13.7199 11.6768C13.598 11.4038 13.3948 11.1686 13.1103 10.9711L8.67779 7.91336C8.50363 7.7972 8.34107 7.76526 8.19013 7.81753C8.04499 7.8698 7.9492 7.96853 7.90276 8.11372C7.85631 8.25892 7.88824 8.41863 7.99855 8.59286L11.0464 13.0271C11.2438 13.3175 11.479 13.5236 11.7518 13.6456C12.0247 13.7676 12.3062 13.8053 12.5965 13.7589C12.8868 13.7124 13.1538 13.5701 13.3977 13.332Z" fill="currentColor"/>
</g>
</symbol><symbol id="MonoIcons/plus-circle" viewBox="0 0 24 24">
<g id="plus-circle">
<path id="color" d="M11.9956 20.9982C13.2264 20.9982 14.3846 20.763 15.4702 20.2926C16.5559 19.828 17.5138 19.1804 18.344 18.3499C19.1742 17.5194 19.8244 16.5611 20.2946 15.475C20.7649 14.389 21 13.2304 21 11.9991C21 10.7679 20.7649 9.60922 20.2946 8.52317C19.8244 7.43712 19.1742 6.48175 18.344 5.65705C17.5138 4.82654 16.5559 4.17607 15.4702 3.70564C14.3846 3.23521 13.2235 3 11.9869 3C10.7562 3 9.59797 3.23521 8.51234 3.70564C7.43251 4.17607 6.4775 4.82654 5.64732 5.65705C4.82293 6.48175 4.17562 7.43712 3.70537 8.52317C3.23512 9.60922 3 10.7679 3 11.9991C3 13.2304 3.23512 14.389 3.70537 15.475C4.17562 16.5611 4.82293 17.5194 5.64732 18.3499C6.4775 19.1804 7.43541 19.828 8.52105 20.2926C9.60668 20.763 10.7649 20.9982 11.9956 20.9982ZM11.9956 19.221C10.9971 19.221 10.0595 19.0352 9.18287 18.6635C8.31205 18.2918 7.54572 17.7749 6.88389 17.1128C6.22787 16.4508 5.71408 15.6841 5.34253 14.813C4.97097 13.9418 4.7852 13.0038 4.7852 11.9991C4.7852 11.0002 4.97097 10.0651 5.34253 9.19397C5.71408 8.317 6.22787 7.54747 6.88389 6.88539C7.53991 6.2233 8.30334 5.70641 9.17417 5.33472C10.0508 4.96302 10.9884 4.77717 11.9869 4.77717C12.9913 4.77717 13.9289 4.96302 14.7997 5.33472C15.6705 5.70641 16.4369 6.2233 17.0987 6.88539C17.7663 7.54747 18.2859 8.317 18.6575 9.19397C19.029 10.0651 19.2148 11.0002 19.2148 11.9991C19.2148 13.0038 19.029 13.9418 18.6575 14.813C18.2859 15.6841 17.7692 16.4508 17.1074 17.1128C16.4514 17.7749 15.6851 18.2918 14.8084 18.6635C13.9376 19.0352 13 19.221 11.9956 19.221ZM7.97242 11.9991C7.97242 12.2314 8.0479 12.4231 8.19884 12.5741C8.35559 12.7251 8.55588 12.8006 8.79971 12.8006H11.1858V15.1963C11.1858 15.4344 11.2612 15.6319 11.4122 15.7887C11.5631 15.9397 11.7547 16.0152 11.9869 16.0152C12.2308 16.0152 12.4282 15.9397 12.5791 15.7887C12.7358 15.6319 12.8142 15.4344 12.8142 15.1963V12.8006H15.2003C15.4441 12.8006 15.6415 12.7251 15.7925 12.5741C15.9434 12.4231 16.0189 12.2314 16.0189 11.9991C16.0189 11.7552 15.9434 11.5577 15.7925 11.4067C15.6415 11.2499 15.4441 11.1715 15.2003 11.1715H12.8142V8.78452C12.8142 8.54059 12.7358 8.34313 12.5791 8.19213C12.4282 8.04113 12.2308 7.96563 11.9869 7.96563C11.7547 7.96563 11.5631 8.04403 11.4122 8.20084C11.2612 8.35184 11.1858 8.5464 11.1858 8.78452V11.1715H8.79971C8.55007 11.1715 8.34978 11.2499 8.19884 11.4067C8.0479 11.5577 7.97242 11.7552 7.97242 11.9991Z" fill="currentColor"/>
</g>
</symbol><symbol id="MonoIcons/mappin-and-ellipse" viewBox="0 0 24 24">
<g id="mappin-and-ellipse">
<path id="&#xF4;&#x20AC;&#x17D;&#xAB;" d="M8.52405 5.64793C8.52405 6.18093 8.63245 6.67879 8.84924 7.1415C9.0719 7.59836 9.37659 7.99079 9.76331 8.31879C10.15 8.64093 10.5895 8.86936 11.0817 9.00408V14.5391C11.0817 15.1365 11.111 15.6724 11.1696 16.1469C11.2281 16.6213 11.3043 17.0284 11.3981 17.3681C11.4918 17.7019 11.5914 17.9567 11.6969 18.1324C11.8024 18.3081 11.9049 18.396 12.0045 18.396C12.0983 18.396 12.1979 18.3081 12.3033 18.1324C12.4088 17.9567 12.5084 17.7019 12.6022 17.3681C12.6959 17.0284 12.7721 16.6213 12.8307 16.1469C12.8893 15.6724 12.9186 15.1365 12.9186 14.5391V9.00408C13.4108 8.87522 13.8502 8.64679 14.2369 8.31879C14.6237 7.99079 14.9283 7.59836 15.151 7.1415C15.3737 6.67879 15.485 6.18093 15.485 5.64793C15.485 5.00365 15.3268 4.41793 15.0104 3.89079C14.6998 3.36365 14.2809 2.94486 13.7535 2.63443C13.2321 2.31815 12.649 2.16 12.0045 2.16C11.36 2.16 10.774 2.31815 10.2467 2.63443C9.72522 2.94486 9.30627 3.36365 8.98987 3.89079C8.67932 4.41793 8.52405 5.00365 8.52405 5.64793ZM11.0114 5.84122C10.6949 5.84122 10.4166 5.72408 10.1764 5.48979C9.94202 5.24965 9.82483 4.9685 9.82483 4.64636C9.82483 4.32422 9.94202 4.046 10.1764 3.81172C10.4166 3.57743 10.6949 3.46029 11.0114 3.46029C11.3395 3.46029 11.6207 3.57743 11.8551 3.81172C12.0895 4.046 12.2067 4.32422 12.2067 4.64636C12.2067 4.9685 12.0895 5.24965 11.8551 5.48979C11.6207 5.72408 11.3395 5.84122 11.0114 5.84122ZM12.0045 21.84C13.3932 21.84 14.6354 21.7316 15.7311 21.5149C16.8326 21.3041 17.7672 21.0112 18.5348 20.6364C19.3024 20.2615 19.8854 19.8339 20.2838 19.3536C20.6881 18.8734 20.8903 18.3638 20.8903 17.8249C20.8903 17.3505 20.7584 16.9141 20.4948 16.5159C20.2369 16.1117 19.8824 15.7515 19.4313 15.4352C18.986 15.1131 18.4821 14.8378 17.9196 14.6094C17.3629 14.3751 16.7799 14.1935 16.1705 14.0646C15.567 13.9299 14.9811 13.8538 14.4127 13.8362V15.3825C14.899 15.4001 15.403 15.4704 15.9244 15.5934C16.4459 15.7105 16.9293 15.8686 17.3746 16.0678C17.8258 16.2669 18.192 16.5012 18.4733 16.7706C18.7545 17.0401 18.8951 17.3329 18.8951 17.6492C18.8951 18.0299 18.7223 18.3755 18.3766 18.6859C18.0367 18.9964 17.5592 19.2658 16.944 19.4942C16.3287 19.7226 15.5992 19.8984 14.7555 20.0214C13.9176 20.1444 13.0006 20.2059 12.0045 20.2059C11.0026 20.2059 10.0797 20.1444 9.23596 20.0214C8.39807 19.8984 7.66858 19.7226 7.04749 19.4942C6.43225 19.2716 5.95471 19.0022 5.61487 18.6859C5.27502 18.3755 5.1051 18.0299 5.1051 17.6492C5.1051 17.3329 5.24573 17.0401 5.52698 16.7706C5.80823 16.5012 6.17151 16.2669 6.61682 16.0678C7.06799 15.8686 7.55432 15.7105 8.07581 15.5934C8.60315 15.4704 9.10706 15.4001 9.58752 15.3825V13.8362C9.01917 13.8538 8.43323 13.9299 7.82971 14.0646C7.2262 14.1935 6.64319 14.3751 6.08069 14.6094C5.51819 14.8378 5.01428 15.1131 4.56897 15.4352C4.12366 15.7515 3.76917 16.1117 3.50549 16.5159C3.24182 16.9141 3.10999 17.3505 3.10999 17.8249C3.10999 18.3638 3.3092 18.8734 3.70764 19.3536C4.11194 19.8339 4.69788 20.2615 5.46545 20.6364C6.23303 21.0112 7.16467 21.3041 8.26038 21.5149C9.36194 21.7316 10.61 21.84 12.0045 21.84Z" fill="currentColor"/>
</g>
</symbol><symbol id="MonoIcons/roller-skating" viewBox="0 0 24 24">
<g id="roller-skating">
<path id="color" fill-rule="evenodd" clip-rule="evenodd" d="M18.4 6.5C19.5046 6.5 20.4 5.60457 20.4 4.5C20.4 3.39543 19.5046 2.5 18.4 2.5C17.2954 2.5 16.4 3.39543 16.4 4.5C16.4 5.60457 17.2954 6.5 18.4 6.5ZM11.1068 10.4146L12.6098 9.21213C12.7508 9.09937 12.682 8.87234 12.5022 8.85671L6.76711 8.35801C6.38968 8.32519 6.1 8.00923 6.1 7.63037C6.1 7.227 6.427 6.89999 6.83038 6.89999H16.4956C18.205 6.89999 18.9519 9.05925 17.6077 10.1154L15.0119 12.1549C14.8292 12.2984 14.7695 12.5489 14.8678 12.7595L15.852 14.8686C16.0139 15.2156 16.0728 15.6017 16.0218 15.9812L15.4583 20.1667C15.4249 20.4148 15.2132 20.6 14.9628 20.6H14.5C14.2239 20.6 14 20.3761 14 20.1V16.4276C14 16.1545 13.8883 15.8933 13.6909 15.7046L10.9877 13.1215C10.2002 12.369 10.2562 11.095 11.1068 10.4146ZM11.2856 15.3856L10.0403 14.1403C9.9127 14.0127 9.70215 14.0258 9.59136 14.1683L5.88426 18.9345C5.72386 19.1407 5.74928 19.4357 5.9426 19.6115L6.35093 19.9827C6.54691 20.1608 6.84783 20.1552 7.03708 19.9699L11.2834 15.8121C11.4026 15.6953 11.4037 15.5036 11.2856 15.3856ZM3.7 20.05C3.7 20.4642 3.36421 20.8 2.95 20.8C2.53579 20.8 2.2 20.4642 2.2 20.05C2.2 19.6358 2.53579 19.3 2.95 19.3C3.36421 19.3 3.7 19.6358 3.7 20.05ZM5.9 20.75C5.9 21.1642 5.56421 21.5 5.15 21.5C4.73579 21.5 4.4 21.1642 4.4 20.75C4.4 20.3358 4.73579 20 5.15 20C5.56421 20 5.9 20.3358 5.9 20.75ZM7.35 22.2C7.76421 22.2 8.1 21.8642 8.1 21.45C8.1 21.0358 7.76421 20.7 7.35 20.7C6.93578 20.7 6.6 21.0358 6.6 21.45C6.6 21.8642 6.93578 22.2 7.35 22.2ZM12.55 22.3C12.9642 22.3 13.3 21.9642 13.3 21.55C13.3 21.1358 12.9642 20.8 12.55 20.8C12.1358 20.8 11.8 21.1358 11.8 21.55C11.8 21.9642 12.1358 22.3 12.55 22.3ZM14.75 22.3C15.1642 22.3 15.5 21.9642 15.5 21.55C15.5 21.1358 15.1642 20.8 14.75 20.8C14.3358 20.8 14 21.1358 14 21.55C14 21.9642 14.3358 22.3 14.75 22.3ZM17.7 21.55C17.7 21.9642 17.3642 22.3 16.95 22.3C16.5358 22.3 16.2 21.9642 16.2 21.55C16.2 21.1358 16.5358 20.8 16.95 20.8C17.3642 20.8 17.7 21.1358 17.7 21.55Z" fill="currentColor"/>
</g>
</symbol><symbol id="MonoIcons/bicycle" viewBox="0 0 24 24">
<g id="bicycle">
<path id="color" fill-rule="evenodd" clip-rule="evenodd" d="M15 4.25C14.7569 4.25 14.529 4.36779 14.3883 4.56602C14.2477 4.76425 14.2118 5.01835 14.2921 5.24776L15.0979 7.55H8.7376L8.28543 6.75H9C9.41421 6.75 9.75 6.41421 9.75 6C9.75 5.58579 9.41421 5.25 9 5.25H6C5.58579 5.25 5.25 5.58579 5.25 6C5.25 6.41421 5.58579 6.75 6 6.75H6.56241L7.45803 8.33456L6.37961 10.6711C6.04933 10.5919 5.70456 10.55 5.35 10.55C2.91994 10.55 0.949997 12.5199 0.949997 14.95C0.949997 17.3801 2.91994 19.35 5.35 19.35C7.57653 19.35 9.4168 17.6962 9.70943 15.55H12.3C12.5759 15.55 12.8295 15.3985 12.9604 15.1556L15.8691 9.75356L16.3704 11.1858C15.0993 11.9573 14.25 13.3545 14.25 14.95C14.25 17.3801 16.2199 19.35 18.65 19.35C21.0801 19.35 23.05 17.3801 23.05 14.95C23.05 12.5199 21.0801 10.55 18.65 10.55C18.3479 10.55 18.053 10.5804 17.7681 10.6384L16.0571 5.75H17C17.4142 5.75 17.75 5.41421 17.75 5C17.75 4.58579 17.4142 4.25 17 4.25H15ZM16.883 12.6503L17.7921 15.2478C17.9289 15.6387 18.3568 15.8447 18.7478 15.7079C19.1387 15.5711 19.3447 15.1432 19.2079 14.7522L18.2707 12.0746C18.3948 12.0584 18.5214 12.05 18.65 12.05C20.2516 12.05 21.55 13.3484 21.55 14.95C21.55 16.5516 20.2516 17.85 18.65 17.85C17.0484 17.85 15.75 16.5516 15.75 14.95C15.75 14.0134 16.194 13.1805 16.883 12.6503ZM5.35 12.05C5.47939 12.05 5.6068 12.0585 5.73171 12.0749L4.61904 14.4857C4.51185 14.7179 4.53041 14.9888 4.66825 15.2042C4.8061 15.4197 5.04424 15.55 5.3 15.55H8.18785C7.91148 16.8637 6.74592 17.85 5.35 17.85C3.74837 17.85 2.45 16.5516 2.45 14.95C2.45 13.3484 3.74837 12.05 5.35 12.05ZM6.47219 14.05H8.10763C7.92467 13.4891 7.57533 13.0033 7.11788 12.651L6.47219 14.05ZM7.75703 11.2662C8.71705 11.8947 9.41644 12.8884 9.65787 14.05H10.9578L8.39461 9.88476L7.75703 11.2662ZM12.2567 13.2985L14.5443 9.05H9.64218L12.2567 13.2985Z" fill="currentColor"/>
</g>
</symbol><symbol id="MonoIcons/scooter" viewBox="0 0 24 24">
<g id="scooter">
<path id="color" fill-rule="evenodd" clip-rule="evenodd" d="M4 11.3H9.6C9.71046 11.3 9.80017 11.3887 9.80162 11.4991C9.80807 11.9907 9.84016 13.2409 10 13.5C10.2625 13.9255 10.8793 14.2 11.3466 14.2H12.4471C13.5933 14.2 14.6845 13.5 15.289 12.8602C16 12.1076 16.3 11.2349 16.3 10C16.3 8.68859 15.289 5.4 15.289 5.4L12.7041 5.39999C12.572 5.39999 12.4438 5.35503 12.3406 5.2725C12.1388 5.111 12.0677 4.83567 12.1661 4.59663L12.2393 4.41897C12.3686 4.10494 12.6746 3.89999 13.0142 3.89999H14.8797C15.068 3.89999 15.3255 3.51305 15.4404 3.32335C15.4783 3.26078 15.5455 3.22095 15.6187 3.22095L17.3859 3.22095C17.6621 3.22095 17.8859 3.44481 17.8859 3.72095V4.9C17.8859 5.17614 17.6621 5.4 17.3859 5.4H17C17 5.4 19.5 10 19.5 13C19.5 13 22.2 14.7916 22.2 15.5C22.2 15.9833 21.9223 16.226 21.5542 16.3315C21.6488 16.6206 21.7 16.9293 21.7 17.25C21.7 18.8792 20.3792 20.2 18.75 20.2C17.1208 20.2 15.8 18.8792 15.8 17.25C15.8 16.9545 15.8434 16.6692 15.9243 16.4H15.8C15.6295 16.4 15.4458 16.5495 15.2481 16.7102C15.018 16.8974 14.769 17.1 14.5 17.1H8.29625C8.29874 17.1497 8.3 17.1997 8.3 17.25C8.3 18.8792 6.97924 20.2 5.35 20.2C3.72076 20.2 2.4 18.8792 2.4 17.25C2.4 16.3475 2.80531 15.5396 3.44385 14.9985C2.91582 14.9708 1.8 14.5646 1.8 13.5C1.8 12.2428 3.34786 11.3 4 11.3ZM20.0464 16.4H17.4536C17.2933 16.6441 17.2 16.9361 17.2 17.25C17.2 18.106 17.894 18.8 18.75 18.8C19.606 18.8 20.3 18.106 20.3 17.25C20.3 16.9361 20.2067 16.6441 20.0464 16.4ZM3.8 17.25C3.8 16.394 4.49396 15.7 5.35 15.7C6.20604 15.7 6.9 16.394 6.9 17.25C6.9 18.106 6.20604 18.8 5.35 18.8C4.49396 18.8 3.8 18.106 3.8 17.25ZM3.9 8.39999C3.5134 8.39999 3.2 8.71339 3.2 9.09999C3.2 9.48659 3.5134 9.79999 3.9 9.79999H9.9C10.2866 9.79999 10.6 9.48659 10.6 9.09999C10.6 8.71339 10.2866 8.39999 9.9 8.39999H3.9Z" fill="currentColor"/>
</g>
</symbol><symbol id="MonoIcons/kart" viewBox="0 0 24 24">
<g id="kart">
<path id="color" fill-rule="evenodd" clip-rule="evenodd" d="M11.2535 9.35356C11.0583 9.1583 11.0583 8.84172 11.2535 8.64645L13.7991 6.10087C13.9944 5.90561 14.311 5.90561 14.5062 6.10087L14.8598 6.45442C15.0551 6.64968 15.0551 6.96627 14.8598 7.16153L14.082 7.93934L16.1426 10H17C18.1444 10 19.9117 11.1078 20.5 11.5C21.0883 11.8922 22.3 13.0609 22.3 14V14.8364C22.3 14.8715 22.3285 14.9 22.3636 14.9C22.7151 14.9 23 15.1849 23 15.5364V15.65C23 16.0642 22.6642 16.4 22.25 16.4H22.1548C21.7602 17.3679 20.8097 18.05 19.7 18.05C18.5903 18.05 17.6398 17.3679 17.2452 16.4H7.45484C7.06017 17.3679 6.10975 18.05 5.00001 18.05C3.89026 18.05 2.93984 17.3679 2.54517 16.4H1.75C1.33579 16.4 1 16.0642 1 15.65C1 15.2358 1.33579 14.9 1.75 14.9H1.8V12C1.8 10.8401 3 10 4.5 10H5.22894C5.44843 10 5.59361 9.77203 5.5008 9.57313L5.23724 9.00838C5.11086 8.73757 5.24871 8.4171 5.53222 8.32259L6.10322 8.13226C6.33286 8.05571 6.58436 8.15467 6.70028 8.36718L8.01574 10.7789C8.19097 11.1001 8.52769 11.3 8.89363 11.3H14.1595L14.7685 10.6058L13.092 8.92929L12.3142 9.70711C12.1189 9.90238 11.8024 9.90238 11.6071 9.70711L11.2535 9.35356ZM19.7 14.25C19.0649 14.25 18.55 14.7649 18.55 15.4C18.55 16.0351 19.0649 16.55 19.7 16.55C20.3351 16.55 20.85 16.0351 20.85 15.4C20.85 14.7649 20.3351 14.25 19.7 14.25ZM3.85001 15.4C3.85001 14.7649 4.36488 14.25 5.00001 14.25C5.63513 14.25 6.15001 14.7649 6.15001 15.4C6.15001 16.0351 5.63513 16.55 5.00001 16.55C4.36488 16.55 3.85001 16.0351 3.85001 15.4Z" fill="currentColor"/>
</g>
</symbol><symbol id="MonoIcons/dirt-bike" viewBox="0 0 24 24">
<g id="dirt-bike">
<path id="color" fill-rule="evenodd" clip-rule="evenodd" d="M11 4.75C10.5858 4.75 10.25 5.08579 10.25 5.5C10.25 5.91421 10.5858 6.25 11 6.25H12.8678C12.9789 6.25 13.081 6.31142 13.133 6.40963L13.9749 8L12.5 8C11.8947 8 11.2619 8.29313 10.7625 8.52452C10.4368 8.67538 10.1678 8.8 10 8.8H8.5C8.19821 8.8 7.76282 8.63788 7.28404 8.45959C6.69929 8.24185 6.04982 8 5.5 8L2.40001 8C1.95818 8 1.60001 8.35818 1.60001 8.8C1.60001 9.24183 1.95818 9.6 2.40001 9.6H5C5.3533 9.6 6.86156 10.1042 7.5 10.5C7.85515 10.7202 8.27266 11.0267 8.63409 11.3052L7.23685 12.7025C6.63919 12.261 5.90007 12 5.1 12C3.11177 12 1.5 13.6118 1.5 15.6C1.5 17.5882 3.11177 19.2 5.1 19.2C7.00605 19.2 8.56613 17.7187 8.69183 15.8445L12.9061 15.2425C13.2756 15.1897 13.55 14.8732 13.55 14.5V11.9992C13.9466 11.9866 14.1978 11.8239 14.5179 11.6165C14.5759 11.5789 14.6362 11.5399 14.7 11.5C14.9298 11.3564 15.2174 11.1384 15.5106 10.9008L16.5224 12.8119C15.7152 13.4721 15.2 14.4759 15.2 15.6C15.2 17.5882 16.8118 19.2 18.8 19.2C20.7882 19.2 22.4 17.5882 22.4 15.6C22.4 13.6118 20.7882 12 18.8 12C18.4733 12 18.1568 12.0435 17.856 12.125L16.6901 9.92272C17.0173 9.71527 17.3969 9.6 17.7883 9.6H20.0444C20.4862 9.6 20.8444 9.24183 20.8444 8.8C20.8444 8.35818 20.4862 8 20.0444 8H17.3246C17.1096 8 16.896 8.03466 16.6921 8.10264L15.8713 8.37622L14.1628 5.14908C14.0329 4.90356 13.7778 4.75 13.5 4.75H11ZM17.2489 14.1843L18.2372 16.0509C18.431 16.417 18.8848 16.5566 19.2509 16.3628C19.617 16.169 19.7566 15.7152 19.5628 15.3491L18.5894 13.5104C18.6587 13.5035 18.7289 13.5 18.8 13.5C19.9598 13.5 20.9 14.4402 20.9 15.6C20.9 16.7598 19.9598 17.7 18.8 17.7C17.6402 17.7 16.7 16.7598 16.7 15.6C16.7 15.0545 16.908 14.5576 17.2489 14.1843ZM8.48055 14.3595C8.41259 14.1743 8.32986 13.9963 8.23378 13.8269L10.0607 12H12.05V13.8495L8.48055 14.3595ZM5.1 13.5C5.88965 13.5 6.5775 13.9358 6.93613 14.5801L4.99393 14.8575C4.58388 14.9161 4.29895 15.296 4.35753 15.7061C4.41611 16.1161 4.79601 16.401 5.20606 16.3425L7.14834 16.065C6.93675 17.001 6.1 17.7 5.1 17.7C3.9402 17.7 3 16.7598 3 15.6C3 14.4402 3.9402 13.5 5.1 13.5Z" fill="currentColor"/>
</g>
</symbol><symbol id="MonoIcons/quad-bike" viewBox="0 0 24 24">
<g id="quad-bike">
<path id="color" fill-rule="evenodd" clip-rule="evenodd" d="M11 4.85001C10.5858 4.85001 10.25 5.18579 10.25 5.60001C10.25 6.01422 10.5858 6.35001 11 6.35001H13.1395L14.1656 7.63255C13.831 7.79773 13.5374 8.03753 13.2688 8.25688C12.9145 8.54622 12.6038 8.79999 12.3 8.79999C12.3 8.79999 8.8 8.69999 7.99999 8.59999C7.80111 8.57513 7.45501 8.49962 7.04505 8.41018C6.23097 8.23256 5.16507 7.99999 4.49999 7.99999H1.79999C1.2477 7.99999 0.799988 8.44771 0.799988 8.99999V9.44618C0.799988 10.019 1.28014 10.4763 1.85299 10.474C2.51235 10.4714 3.35599 10.494 3.99999 10.6C4.94886 10.7562 6.08465 11.1957 7.01314 11.6127L5.79141 13.0788C5.36335 12.8992 4.89325 12.8 4.39999 12.8C2.41176 12.8 0.799988 14.4118 0.799988 16.4C0.799988 18.3882 2.41176 20 4.39999 20C5.98607 20 7.33259 18.9743 7.8124 17.55H16.1876C16.6674 18.9743 18.0139 20 19.6 20C21.5882 20 23.2 18.3882 23.2 16.4C23.2 14.4118 21.5882 12.8 19.6 12.8C19.1067 12.8 18.6366 12.8992 18.2086 13.0788L16.517 11.0489L16.586 10.8419C16.6541 10.6377 16.8451 10.5 17.0603 10.5022C17.1298 10.503 17.2047 10.5035 17.2834 10.504C17.8298 10.5077 18.563 10.5126 19 10.6C19.1022 10.6204 19.2444 10.6497 19.4109 10.6839C20.1704 10.8401 21.4345 11.1 21.7 11.1C22.2305 11.1 22.3 10.4332 22.3 10.1C22.3 9.5 19.6912 8.08757 19.5 7.99999C19.4653 7.9841 19.4313 7.96851 19.398 7.95321C18.708 7.63669 18.2893 7.44457 17.5 7.29999C16.8248 7.1763 16.2989 7.15143 15.7551 7.21831L14.0857 5.13148C13.9433 4.95357 13.7278 4.85001 13.5 4.85001H11ZM8.40338 12.2875L7.02727 13.9388C7.55572 14.5027 7.90473 15.2368 7.98319 16.05H8.8V12.7932C8.8 12.6121 8.70299 12.4458 8.54306 12.361C8.50105 12.3387 8.45436 12.3141 8.40338 12.2875ZM14.85 16.05L15.9592 12.7225L16.9727 13.9388C16.4443 14.5027 16.0953 15.2368 16.0168 16.05H14.85ZM6.49999 16.4C6.49999 17.5598 5.55979 18.5 4.39999 18.5C3.24019 18.5 2.29999 17.5598 2.29999 16.4C2.29999 15.2402 3.24019 14.3 4.39999 14.3C5.55979 14.3 6.49999 15.2402 6.49999 16.4ZM21.7 16.4C21.7 17.5598 20.7598 18.5 19.6 18.5C18.4402 18.5 17.5 17.5598 17.5 16.4C17.5 15.2402 18.4402 14.3 19.6 14.3C20.7598 14.3 21.7 15.2402 21.7 16.4Z" fill="currentColor"/>
</g>
</symbol><symbol id="MonoIcons/race-car" viewBox="0 0 24 24">
<g id="race-car">
<path id="color" fill-rule="evenodd" clip-rule="evenodd" d="M3.70001 4.7C3.42387 4.7 3.20001 4.92385 3.20001 5.2V7.1C3.20001 7.37614 3.42387 7.6 3.70001 7.6H7.90001C8.17615 7.6 8.40001 7.37614 8.40001 7.1V5.2C8.40001 4.92385 8.17615 4.7 7.90001 4.7H3.70001ZM3.70001 16.4C3.42387 16.4 3.20001 16.6239 3.20001 16.9V18.8C3.20001 19.0761 3.42387 19.3 3.70001 19.3H7.90001C8.17615 19.3 8.40001 19.0761 8.40001 18.8V16.9C8.40001 16.6239 8.17615 16.4 7.90001 16.4H3.70001ZM15.6 15.4C15.6 15.1239 15.8239 14.9 16.1 14.9H19.5C19.7761 14.9 20 15.1239 20 15.4V17.3C20 17.5761 19.7761 17.8 19.5 17.8H16.1C15.8239 17.8 15.6 17.5761 15.6 17.3V15.4ZM16.1 6.2C15.8239 6.2 15.6 6.42385 15.6 6.7V8.6C15.6 8.87614 15.8239 9.1 16.1 9.1H19.5C19.7761 9.1 20 8.87614 20 8.6V6.7C20 6.42385 19.7761 6.2 19.5 6.2H16.1ZM1 9.1C1 8.65818 1.35817 8.3 1.8 8.3H2.3C3.23888 8.3 4 9.06112 4 10V10.5H7V10.5C7 9.49999 8.32913 8.39999 9.2 8.39999L12.5 8.5C12.807 8.5 13.2092 8.65818 13.687 8.96491C14.0777 9.21568 14.5189 9.49889 15 9.7C15.5142 9.91497 16.8363 10.4356 19.4994 10.4945C19.7755 10.5006 20 10.7239 20 11V12V13C20 13.2761 19.7755 13.4994 19.4994 13.5055C16.8363 13.5644 15.5142 14.085 15 14.3C14.5791 14.476 14.1887 14.7148 13.8359 14.9398C13.786 14.9716 13.7368 15.0031 13.6885 15.0342L13.6879 15.0345L13.687 15.0351C13.2092 15.3418 12.807 15.5 12.5 15.5L9.2 15.6C8.32913 15.6 7 14.5 7 13.5L4 13.5V14C4 14.9389 3.23888 15.7 2.3 15.7H1.8C1.35817 15.7 1 15.3418 1 14.9V9.1ZM10 10.5C9.44772 10.5 9 10.9477 9 11.5V12.5C9 13.0523 9.44772 13.5 10 13.5H12C12.5523 13.5 13 13.0523 13 12.5V11.5C13 10.9477 12.5523 10.5 12 10.5H10ZM22.25 8.3C21.8358 8.3 21.5 8.63579 21.5 9.05V14.95C21.5 15.3642 21.8358 15.7 22.25 15.7C22.6642 15.7 23 15.3642 23 14.95V9.05C23 8.63579 22.6642 8.3 22.25 8.3Z" fill="currentColor"/>
</g>
</symbol></svg>
